G75*
%MOIN*%
%OFA0B0*%
%FSLAX24Y24*%
%IPPOS*%
%LPD*%
%AMOC8*
5,1,8,0,0,1.08239X$1,22.5*
%
%ADD10C,0.0000*%
%ADD11C,0.0060*%
%ADD12C,0.0030*%
%ADD13C,0.0080*%
%ADD14C,0.0050*%
%ADD15C,0.0220*%
%ADD16C,0.0010*%
%ADD17C,0.0020*%
%ADD18R,0.0180X0.0300*%
%ADD19R,0.0300X0.0180*%
%ADD20C,0.0100*%
%ADD21C,0.0040*%
D10*
X003825Y000450D02*
X003825Y032450D01*
X043825Y032450D01*
X043825Y000450D01*
X003825Y000450D01*
X021734Y003139D02*
X021736Y003187D01*
X021742Y003235D01*
X021752Y003282D01*
X021765Y003328D01*
X021783Y003373D01*
X021803Y003417D01*
X021828Y003459D01*
X021856Y003498D01*
X021886Y003535D01*
X021920Y003569D01*
X021957Y003601D01*
X021995Y003630D01*
X022036Y003655D01*
X022079Y003677D01*
X022124Y003695D01*
X022170Y003709D01*
X022217Y003720D01*
X022265Y003727D01*
X022313Y003730D01*
X022361Y003729D01*
X022409Y003724D01*
X022457Y003715D01*
X022503Y003703D01*
X022548Y003686D01*
X022592Y003666D01*
X022634Y003643D01*
X022674Y003616D01*
X022712Y003586D01*
X022747Y003553D01*
X022779Y003517D01*
X022809Y003479D01*
X022835Y003438D01*
X022857Y003395D01*
X022877Y003351D01*
X022892Y003306D01*
X022904Y003259D01*
X022912Y003211D01*
X022916Y003163D01*
X022916Y003115D01*
X022912Y003067D01*
X022904Y003019D01*
X022892Y002972D01*
X022877Y002927D01*
X022857Y002883D01*
X022835Y002840D01*
X022809Y002799D01*
X022779Y002761D01*
X022747Y002725D01*
X022712Y002692D01*
X022674Y002662D01*
X022634Y002635D01*
X022592Y002612D01*
X022548Y002592D01*
X022503Y002575D01*
X022457Y002563D01*
X022409Y002554D01*
X022361Y002549D01*
X022313Y002548D01*
X022265Y002551D01*
X022217Y002558D01*
X022170Y002569D01*
X022124Y002583D01*
X022079Y002601D01*
X022036Y002623D01*
X021995Y002648D01*
X021957Y002677D01*
X021920Y002709D01*
X021886Y002743D01*
X021856Y002780D01*
X021828Y002819D01*
X021803Y002861D01*
X021783Y002905D01*
X021765Y002950D01*
X021752Y002996D01*
X021742Y003043D01*
X021736Y003091D01*
X021734Y003139D01*
X021734Y014950D02*
X021736Y014998D01*
X021742Y015046D01*
X021752Y015093D01*
X021765Y015139D01*
X021783Y015184D01*
X021803Y015228D01*
X021828Y015270D01*
X021856Y015309D01*
X021886Y015346D01*
X021920Y015380D01*
X021957Y015412D01*
X021995Y015441D01*
X022036Y015466D01*
X022079Y015488D01*
X022124Y015506D01*
X022170Y015520D01*
X022217Y015531D01*
X022265Y015538D01*
X022313Y015541D01*
X022361Y015540D01*
X022409Y015535D01*
X022457Y015526D01*
X022503Y015514D01*
X022548Y015497D01*
X022592Y015477D01*
X022634Y015454D01*
X022674Y015427D01*
X022712Y015397D01*
X022747Y015364D01*
X022779Y015328D01*
X022809Y015290D01*
X022835Y015249D01*
X022857Y015206D01*
X022877Y015162D01*
X022892Y015117D01*
X022904Y015070D01*
X022912Y015022D01*
X022916Y014974D01*
X022916Y014926D01*
X022912Y014878D01*
X022904Y014830D01*
X022892Y014783D01*
X022877Y014738D01*
X022857Y014694D01*
X022835Y014651D01*
X022809Y014610D01*
X022779Y014572D01*
X022747Y014536D01*
X022712Y014503D01*
X022674Y014473D01*
X022634Y014446D01*
X022592Y014423D01*
X022548Y014403D01*
X022503Y014386D01*
X022457Y014374D01*
X022409Y014365D01*
X022361Y014360D01*
X022313Y014359D01*
X022265Y014362D01*
X022217Y014369D01*
X022170Y014380D01*
X022124Y014394D01*
X022079Y014412D01*
X022036Y014434D01*
X021995Y014459D01*
X021957Y014488D01*
X021920Y014520D01*
X021886Y014554D01*
X021856Y014591D01*
X021828Y014630D01*
X021803Y014672D01*
X021783Y014716D01*
X021765Y014761D01*
X021752Y014807D01*
X021742Y014854D01*
X021736Y014902D01*
X021734Y014950D01*
D11*
X023515Y013060D02*
X023515Y012660D01*
X022195Y011800D02*
X021975Y011580D01*
X021835Y011750D02*
X021835Y011940D01*
X022025Y011940D01*
X025625Y011940D02*
X025815Y011940D01*
X025815Y011750D01*
X026505Y010570D02*
X026905Y010570D01*
X025815Y008150D02*
X025815Y007960D01*
X025625Y007960D01*
X024775Y007260D02*
X024775Y006860D01*
X022025Y007960D02*
X021835Y007960D01*
X021835Y008150D01*
X021135Y008680D02*
X020735Y008680D01*
X027825Y002700D02*
X028075Y002950D01*
X028575Y002950D01*
X028825Y002700D01*
X029075Y002950D01*
X029575Y002950D01*
X029825Y002700D01*
X030075Y002950D01*
X030575Y002950D01*
X030825Y002700D01*
X030825Y001200D01*
X030575Y000950D01*
X030075Y000950D01*
X029825Y001200D01*
X029575Y000950D01*
X029075Y000950D01*
X028825Y001200D01*
X028575Y000950D01*
X028075Y000950D01*
X027825Y001200D01*
X027825Y002700D01*
X031825Y001700D02*
X031825Y001200D01*
X032075Y000950D01*
X032575Y000950D01*
X032825Y001200D01*
X033075Y000950D01*
X033575Y000950D01*
X033825Y001200D01*
X033825Y001700D01*
X033575Y001950D01*
X033075Y001950D01*
X032825Y001700D01*
X032825Y001200D01*
X032825Y001700D02*
X032575Y001950D01*
X032075Y001950D01*
X031825Y001700D01*
X030075Y021450D02*
X029575Y021450D01*
X029325Y021700D01*
X029075Y021450D01*
X028575Y021450D01*
X028325Y021700D01*
X028325Y022200D01*
X028575Y022450D01*
X029075Y022450D01*
X029325Y022200D01*
X029575Y022450D01*
X030075Y022450D01*
X030325Y022200D01*
X030325Y021700D01*
X030075Y021450D01*
X029325Y021700D02*
X029325Y022200D01*
X030765Y023690D02*
X031885Y023690D01*
X031885Y024210D01*
X030765Y024210D01*
X030765Y023690D01*
X012755Y028240D02*
X012755Y029660D01*
X010895Y029660D02*
X010895Y028240D01*
X005825Y024200D02*
X005825Y023700D01*
X005575Y023450D01*
X005825Y023200D01*
X005825Y022700D01*
X005575Y022450D01*
X005075Y022450D01*
X004825Y022700D01*
X004825Y023200D01*
X005075Y023450D01*
X004825Y023700D01*
X004825Y024200D01*
X005075Y024450D01*
X005575Y024450D01*
X005825Y024200D01*
X005575Y023450D02*
X005075Y023450D01*
D12*
X020810Y011987D02*
X021124Y011673D01*
X020967Y011673D02*
X020967Y011987D01*
X021124Y011987D02*
X020810Y011673D01*
X020810Y011830D02*
X021124Y011830D01*
D13*
X016349Y010631D02*
X015522Y010631D01*
X015520Y010604D01*
X015515Y010578D01*
X015506Y010553D01*
X015493Y010529D01*
X015478Y010507D01*
X015459Y010487D01*
X015439Y010470D01*
X015416Y010456D01*
X015391Y010445D01*
X015365Y010438D01*
X015338Y010434D01*
X015312Y010434D01*
X015285Y010438D01*
X015259Y010445D01*
X015234Y010456D01*
X015211Y010470D01*
X015191Y010487D01*
X015172Y010507D01*
X015157Y010529D01*
X015144Y010553D01*
X015135Y010578D01*
X015130Y010604D01*
X015128Y010631D01*
X014380Y010631D01*
X014380Y010552D01*
X016349Y010552D02*
X016349Y010631D01*
X016349Y008308D02*
X016349Y008230D01*
X014380Y008230D01*
X014380Y008308D01*
X022225Y006761D02*
X022225Y006143D01*
X022348Y006020D01*
X022595Y006020D01*
X022719Y006143D01*
X022719Y006761D01*
X022980Y006637D02*
X023104Y006761D01*
X023350Y006761D01*
X023474Y006637D01*
X023350Y006390D02*
X023104Y006390D01*
X022980Y006514D01*
X022980Y006637D01*
X023227Y006884D02*
X023227Y005897D01*
X023104Y006020D02*
X023350Y006020D01*
X023474Y006143D01*
X023474Y006267D01*
X023350Y006390D01*
X023735Y006514D02*
X023982Y006761D01*
X023982Y006020D01*
X023735Y006020D02*
X024229Y006020D01*
X023104Y006020D02*
X022980Y006143D01*
X024758Y001131D02*
X024758Y000950D01*
X024880Y001042D01*
X024758Y000950D02*
X024758Y000769D01*
X024880Y000864D02*
X024764Y000940D01*
X034035Y009300D02*
X034035Y010600D01*
X036615Y010600D01*
X036615Y009300D01*
X034035Y009300D01*
X031758Y017769D02*
X031758Y017950D01*
X031880Y018042D01*
X031758Y018131D02*
X031758Y017950D01*
X031764Y017940D02*
X031880Y017864D01*
X031758Y018769D02*
X031758Y018950D01*
X031880Y019042D01*
X031758Y019131D02*
X031758Y018950D01*
X031764Y018940D02*
X031880Y018864D01*
X031758Y019769D02*
X031758Y019950D01*
X031880Y020042D01*
X031758Y020131D02*
X031758Y019950D01*
X031764Y019940D02*
X031880Y019864D01*
X033002Y021245D02*
X033986Y021245D01*
X033986Y029316D01*
X033002Y029316D01*
X033002Y021245D01*
X041664Y021245D02*
X041664Y029316D01*
X042648Y029316D01*
X042648Y021245D01*
X041664Y021245D01*
X011058Y028560D02*
X011060Y028575D01*
X011066Y028588D01*
X011075Y028600D01*
X011086Y028609D01*
X011100Y028615D01*
X011115Y028617D01*
X011130Y028615D01*
X011143Y028609D01*
X011155Y028600D01*
X011164Y028589D01*
X011170Y028575D01*
X011172Y028560D01*
X011170Y028545D01*
X011164Y028532D01*
X011155Y028520D01*
X011144Y028511D01*
X011130Y028505D01*
X011115Y028503D01*
X011100Y028505D01*
X011087Y028511D01*
X011075Y028520D01*
X011066Y028531D01*
X011060Y028545D01*
X011058Y028560D01*
X008825Y020450D02*
X004825Y020450D01*
X004825Y018450D01*
X008825Y018450D01*
X008825Y020050D01*
X008825Y019850D01*
X008825Y020050D02*
X008825Y020450D01*
D14*
X009100Y020515D02*
X009325Y020515D01*
X009250Y020665D01*
X009250Y020740D01*
X009325Y020815D01*
X009475Y020815D01*
X009550Y020740D01*
X009550Y020590D01*
X009475Y020515D01*
X009550Y020354D02*
X009550Y020054D01*
X009550Y020204D02*
X009100Y020204D01*
X009250Y020054D01*
X009175Y019894D02*
X009100Y019819D01*
X009100Y019669D01*
X009175Y019594D01*
X009250Y019594D01*
X009325Y019669D01*
X009325Y019819D01*
X009400Y019894D01*
X009475Y019894D01*
X009550Y019819D01*
X009550Y019669D01*
X009475Y019594D01*
X009475Y019434D02*
X009100Y019434D01*
X009100Y019133D02*
X009475Y019133D01*
X009550Y019208D01*
X009550Y019359D01*
X009475Y019434D01*
X009625Y019744D02*
X009025Y019744D01*
X009100Y020515D02*
X009100Y020815D01*
X004580Y022520D02*
X004505Y022445D01*
X004580Y022520D02*
X004580Y022595D01*
X004505Y022670D01*
X004130Y022670D01*
X004130Y022595D02*
X004130Y022745D01*
X004130Y022905D02*
X004130Y023131D01*
X004205Y023206D01*
X004355Y023206D01*
X004430Y023131D01*
X004430Y022905D01*
X004580Y022905D02*
X004130Y022905D01*
X004205Y023366D02*
X004130Y023441D01*
X004130Y023591D01*
X004205Y023666D01*
X004280Y023666D01*
X004580Y023366D01*
X004580Y023666D01*
X009100Y025975D02*
X009100Y026425D01*
X008950Y026425D02*
X009250Y026425D01*
X009410Y026425D02*
X009636Y026425D01*
X009711Y026350D01*
X009711Y026200D01*
X009636Y026125D01*
X009410Y026125D01*
X009410Y025975D02*
X009410Y026425D01*
X009871Y026350D02*
X009946Y026425D01*
X010096Y026425D01*
X010171Y026350D01*
X010171Y026275D01*
X009871Y025975D01*
X010171Y025975D01*
X003935Y030450D02*
X003937Y030537D01*
X003943Y030623D01*
X003953Y030709D01*
X003967Y030795D01*
X003984Y030880D01*
X004006Y030964D01*
X004032Y031046D01*
X004061Y031128D01*
X004094Y031208D01*
X004130Y031287D01*
X004170Y031364D01*
X004214Y031438D01*
X004261Y031511D01*
X004311Y031582D01*
X004365Y031650D01*
X004421Y031716D01*
X004481Y031779D01*
X004543Y031839D01*
X004608Y031896D01*
X004676Y031951D01*
X004746Y032002D01*
X004818Y032049D01*
X004893Y032094D01*
X004969Y032135D01*
X005047Y032172D01*
X005127Y032206D01*
X005208Y032236D01*
X005291Y032263D01*
X005374Y032285D01*
X005459Y032304D01*
X005544Y032319D01*
X005630Y032330D01*
X005717Y032337D01*
X005803Y032340D01*
X005890Y032339D01*
X005977Y032334D01*
X006063Y032325D01*
X006148Y032312D01*
X006233Y032295D01*
X006318Y032275D01*
X006401Y032250D01*
X006483Y032222D01*
X006563Y032190D01*
X006642Y032154D01*
X006720Y032115D01*
X006795Y032072D01*
X006868Y032026D01*
X006939Y031976D01*
X007008Y031924D01*
X007075Y031868D01*
X007138Y031809D01*
X007199Y031748D01*
X007257Y031683D01*
X007312Y031616D01*
X007364Y031547D01*
X007413Y031475D01*
X007458Y031401D01*
X007500Y031325D01*
X007538Y031248D01*
X007573Y031168D01*
X007604Y031087D01*
X007632Y031005D01*
X007655Y030922D01*
X007675Y030837D01*
X007691Y030752D01*
X007703Y030666D01*
X007711Y030580D01*
X007715Y030493D01*
X007715Y030407D01*
X007711Y030320D01*
X007703Y030234D01*
X007691Y030148D01*
X007675Y030063D01*
X007655Y029978D01*
X007632Y029895D01*
X007604Y029813D01*
X007573Y029732D01*
X007538Y029652D01*
X007500Y029575D01*
X007458Y029499D01*
X007413Y029425D01*
X007364Y029353D01*
X007312Y029284D01*
X007257Y029217D01*
X007199Y029152D01*
X007138Y029091D01*
X007075Y029032D01*
X007008Y028976D01*
X006939Y028924D01*
X006868Y028874D01*
X006795Y028828D01*
X006720Y028785D01*
X006642Y028746D01*
X006563Y028710D01*
X006483Y028678D01*
X006401Y028650D01*
X006318Y028625D01*
X006233Y028605D01*
X006148Y028588D01*
X006063Y028575D01*
X005977Y028566D01*
X005890Y028561D01*
X005803Y028560D01*
X005717Y028563D01*
X005630Y028570D01*
X005544Y028581D01*
X005459Y028596D01*
X005374Y028615D01*
X005291Y028637D01*
X005208Y028664D01*
X005127Y028694D01*
X005047Y028728D01*
X004969Y028765D01*
X004893Y028806D01*
X004818Y028851D01*
X004746Y028898D01*
X004676Y028949D01*
X004608Y029004D01*
X004543Y029061D01*
X004481Y029121D01*
X004421Y029184D01*
X004365Y029250D01*
X004311Y029318D01*
X004261Y029389D01*
X004214Y029462D01*
X004170Y029536D01*
X004130Y029613D01*
X004094Y029692D01*
X004061Y029772D01*
X004032Y029854D01*
X004006Y029936D01*
X003984Y030020D01*
X003967Y030105D01*
X003953Y030191D01*
X003943Y030277D01*
X003937Y030363D01*
X003935Y030450D01*
X008950Y031925D02*
X009250Y031925D01*
X009100Y031925D02*
X009100Y031475D01*
X009410Y031475D02*
X009410Y031925D01*
X009636Y031925D01*
X009711Y031850D01*
X009711Y031700D01*
X009636Y031625D01*
X009410Y031625D01*
X009871Y031550D02*
X009946Y031475D01*
X010096Y031475D01*
X010171Y031550D01*
X010171Y031850D01*
X010096Y031925D01*
X009946Y031925D01*
X009871Y031850D01*
X009871Y031775D01*
X009946Y031700D01*
X010171Y031700D01*
X012950Y031925D02*
X013250Y031925D01*
X013100Y031925D02*
X013100Y031475D01*
X013410Y031475D02*
X013410Y031925D01*
X013636Y031925D01*
X013711Y031850D01*
X013711Y031700D01*
X013636Y031625D01*
X013410Y031625D01*
X013871Y031550D02*
X013946Y031475D01*
X014096Y031475D01*
X014171Y031550D01*
X014171Y031625D01*
X014096Y031700D01*
X014021Y031700D01*
X014096Y031700D02*
X014171Y031775D01*
X014171Y031850D01*
X014096Y031925D01*
X013946Y031925D01*
X013871Y031850D01*
X014950Y031425D02*
X015250Y031425D01*
X015100Y031425D02*
X015100Y030975D01*
X015410Y030975D02*
X015410Y031425D01*
X015636Y031425D01*
X015711Y031350D01*
X015711Y031200D01*
X015636Y031125D01*
X015410Y031125D01*
X015871Y030975D02*
X016171Y030975D01*
X016021Y030975D02*
X016021Y031425D01*
X015871Y031275D01*
X020026Y025631D02*
X026719Y025631D01*
X027014Y025336D01*
X027014Y025237D01*
X020026Y025237D01*
X020026Y022678D01*
X027014Y022678D01*
X027014Y025237D01*
X028470Y023145D02*
X028620Y023145D01*
X028545Y023145D02*
X028545Y022770D01*
X028470Y022695D01*
X028395Y022695D01*
X028320Y022770D01*
X028780Y022695D02*
X028780Y023145D01*
X029006Y023145D01*
X029081Y023070D01*
X029081Y022920D01*
X029006Y022845D01*
X028780Y022845D01*
X029241Y022695D02*
X029541Y022695D01*
X029391Y022695D02*
X029391Y023145D01*
X029241Y022995D01*
X022981Y018925D02*
X022981Y018475D01*
X022831Y018475D02*
X023131Y018475D01*
X022831Y018775D02*
X022981Y018925D01*
X022671Y018850D02*
X022596Y018925D01*
X022446Y018925D01*
X022371Y018850D01*
X022211Y018850D02*
X022211Y018700D01*
X022136Y018625D01*
X021910Y018625D01*
X021910Y018475D02*
X021910Y018925D01*
X022136Y018925D01*
X022211Y018850D01*
X022371Y018475D02*
X022671Y018775D01*
X022671Y018850D01*
X022671Y018475D02*
X022371Y018475D01*
X021600Y018475D02*
X021600Y018925D01*
X021450Y018925D02*
X021750Y018925D01*
X019131Y016850D02*
X018831Y016550D01*
X018906Y016475D01*
X019056Y016475D01*
X019131Y016550D01*
X019131Y016850D01*
X019056Y016925D01*
X018906Y016925D01*
X018831Y016850D01*
X018831Y016550D01*
X018671Y016475D02*
X018371Y016475D01*
X018671Y016775D01*
X018671Y016850D01*
X018596Y016925D01*
X018446Y016925D01*
X018371Y016850D01*
X018211Y016850D02*
X018211Y016700D01*
X018136Y016625D01*
X017910Y016625D01*
X017910Y016475D02*
X017910Y016925D01*
X018136Y016925D01*
X018211Y016850D01*
X017750Y016925D02*
X017450Y016925D01*
X017600Y016925D02*
X017600Y016475D01*
X019450Y015425D02*
X019750Y015425D01*
X019600Y015425D02*
X019600Y014975D01*
X019910Y014975D02*
X019910Y015425D01*
X020136Y015425D01*
X020211Y015350D01*
X020211Y015200D01*
X020136Y015125D01*
X019910Y015125D01*
X020371Y014975D02*
X020671Y015275D01*
X020671Y015350D01*
X020596Y015425D01*
X020446Y015425D01*
X020371Y015350D01*
X020371Y014975D02*
X020671Y014975D01*
X020831Y014975D02*
X021131Y015275D01*
X021131Y015350D01*
X021056Y015425D01*
X020906Y015425D01*
X020831Y015350D01*
X020831Y014975D02*
X021131Y014975D01*
X020096Y012425D02*
X019871Y012200D01*
X020171Y012200D01*
X020096Y011975D02*
X020096Y012425D01*
X019711Y012350D02*
X019711Y012200D01*
X019636Y012125D01*
X019410Y012125D01*
X019410Y011975D02*
X019410Y012425D01*
X019636Y012425D01*
X019711Y012350D01*
X019250Y012425D02*
X018950Y012425D01*
X019100Y012425D02*
X019100Y011975D01*
X017056Y014475D02*
X017131Y014550D01*
X017131Y014850D01*
X017056Y014925D01*
X016906Y014925D01*
X016831Y014850D01*
X016831Y014775D01*
X016906Y014700D01*
X017131Y014700D01*
X017056Y014475D02*
X016906Y014475D01*
X016831Y014550D01*
X016671Y014475D02*
X016371Y014475D01*
X016521Y014475D02*
X016521Y014925D01*
X016371Y014775D01*
X016211Y014700D02*
X016136Y014625D01*
X015910Y014625D01*
X015910Y014475D02*
X015910Y014925D01*
X016136Y014925D01*
X016211Y014850D01*
X016211Y014700D01*
X015750Y014925D02*
X015450Y014925D01*
X015600Y014925D02*
X015600Y014475D01*
X013631Y014425D02*
X013631Y014350D01*
X013331Y014050D01*
X013331Y013975D01*
X013171Y013975D02*
X012871Y013975D01*
X013021Y013975D02*
X013021Y014425D01*
X012871Y014275D01*
X012711Y014350D02*
X012711Y014200D01*
X012636Y014125D01*
X012410Y014125D01*
X012410Y013975D02*
X012410Y014425D01*
X012636Y014425D01*
X012711Y014350D01*
X012250Y014425D02*
X011950Y014425D01*
X012100Y014425D02*
X012100Y013975D01*
X013331Y014425D02*
X013631Y014425D01*
X013600Y016975D02*
X013600Y017425D01*
X013450Y017425D02*
X013750Y017425D01*
X013910Y017425D02*
X014136Y017425D01*
X014211Y017350D01*
X014211Y017200D01*
X014136Y017125D01*
X013910Y017125D01*
X013910Y016975D02*
X013910Y017425D01*
X014371Y017275D02*
X014521Y017425D01*
X014521Y016975D01*
X014371Y016975D02*
X014671Y016975D01*
X014831Y017050D02*
X014906Y016975D01*
X015056Y016975D01*
X015131Y017050D01*
X015131Y017125D01*
X015056Y017200D01*
X014831Y017200D01*
X014831Y017050D01*
X014831Y017200D02*
X014981Y017350D01*
X015131Y017425D01*
X010081Y016891D02*
X010081Y012009D01*
X004569Y012009D01*
X004569Y016891D01*
X010081Y016891D01*
X008825Y009450D02*
X007325Y009450D01*
X006325Y008450D01*
X004245Y008430D02*
X004247Y008530D01*
X004253Y008631D01*
X004263Y008730D01*
X004277Y008830D01*
X004294Y008929D01*
X004316Y009027D01*
X004342Y009124D01*
X004371Y009220D01*
X004404Y009314D01*
X004441Y009408D01*
X004481Y009500D01*
X004525Y009590D01*
X004573Y009678D01*
X004624Y009765D01*
X004678Y009849D01*
X004736Y009931D01*
X004797Y010011D01*
X004861Y010088D01*
X004928Y010163D01*
X004998Y010235D01*
X005071Y010304D01*
X005146Y010370D01*
X005224Y010434D01*
X005304Y010494D01*
X005387Y010551D01*
X005472Y010604D01*
X005559Y010654D01*
X005648Y010701D01*
X005738Y010744D01*
X005830Y010784D01*
X005924Y010820D01*
X006019Y010852D01*
X006115Y010880D01*
X006213Y010905D01*
X006311Y010925D01*
X006410Y010942D01*
X006510Y010955D01*
X006609Y010964D01*
X006710Y010969D01*
X006810Y010970D01*
X006910Y010967D01*
X007011Y010960D01*
X007110Y010949D01*
X007210Y010934D01*
X007308Y010916D01*
X007406Y010893D01*
X007503Y010866D01*
X007598Y010836D01*
X007693Y010802D01*
X007786Y010764D01*
X007877Y010723D01*
X007967Y010678D01*
X008055Y010630D01*
X008141Y010578D01*
X008225Y010523D01*
X008306Y010464D01*
X008385Y010402D01*
X008462Y010338D01*
X008536Y010270D01*
X008607Y010199D01*
X008676Y010126D01*
X008741Y010050D01*
X008804Y009971D01*
X008863Y009890D01*
X008919Y009807D01*
X008972Y009722D01*
X009021Y009634D01*
X009067Y009545D01*
X009109Y009454D01*
X009148Y009361D01*
X009183Y009267D01*
X009214Y009172D01*
X009242Y009075D01*
X009265Y008978D01*
X009285Y008879D01*
X009301Y008780D01*
X009313Y008681D01*
X009321Y008580D01*
X009325Y008480D01*
X009325Y008380D01*
X009321Y008280D01*
X009313Y008179D01*
X009301Y008080D01*
X009285Y007981D01*
X009265Y007882D01*
X009242Y007785D01*
X009214Y007688D01*
X009183Y007593D01*
X009148Y007499D01*
X009109Y007406D01*
X009067Y007315D01*
X009021Y007226D01*
X008972Y007138D01*
X008919Y007053D01*
X008863Y006970D01*
X008804Y006889D01*
X008741Y006810D01*
X008676Y006734D01*
X008607Y006661D01*
X008536Y006590D01*
X008462Y006522D01*
X008385Y006458D01*
X008306Y006396D01*
X008225Y006337D01*
X008141Y006282D01*
X008055Y006230D01*
X007967Y006182D01*
X007877Y006137D01*
X007786Y006096D01*
X007693Y006058D01*
X007598Y006024D01*
X007503Y005994D01*
X007406Y005967D01*
X007308Y005944D01*
X007210Y005926D01*
X007110Y005911D01*
X007011Y005900D01*
X006910Y005893D01*
X006810Y005890D01*
X006710Y005891D01*
X006609Y005896D01*
X006510Y005905D01*
X006410Y005918D01*
X006311Y005935D01*
X006213Y005955D01*
X006115Y005980D01*
X006019Y006008D01*
X005924Y006040D01*
X005830Y006076D01*
X005738Y006116D01*
X005648Y006159D01*
X005559Y006206D01*
X005472Y006256D01*
X005387Y006309D01*
X005304Y006366D01*
X005224Y006426D01*
X005146Y006490D01*
X005071Y006556D01*
X004998Y006625D01*
X004928Y006697D01*
X004861Y006772D01*
X004797Y006849D01*
X004736Y006929D01*
X004678Y007011D01*
X004624Y007095D01*
X004573Y007182D01*
X004525Y007270D01*
X004481Y007360D01*
X004441Y007452D01*
X004404Y007546D01*
X004371Y007640D01*
X004342Y007736D01*
X004316Y007833D01*
X004294Y007931D01*
X004277Y008030D01*
X004263Y008130D01*
X004253Y008229D01*
X004247Y008330D01*
X004245Y008430D01*
X004325Y008450D02*
X005325Y008450D01*
X005325Y009450D01*
X007325Y009450D01*
X007325Y008450D02*
X007325Y007450D01*
X008825Y007450D01*
X009325Y007950D02*
X009325Y008950D01*
X007325Y007450D02*
X004825Y007450D01*
X004325Y007950D02*
X004325Y008450D01*
X004325Y008950D01*
X004825Y009450D02*
X005325Y009450D01*
X005325Y003950D02*
X004825Y003950D01*
X005325Y003950D02*
X005325Y002950D01*
X004325Y002950D01*
X004325Y002450D01*
X004325Y002950D02*
X004325Y003450D01*
X005325Y003950D02*
X007325Y003950D01*
X006325Y002950D01*
X004245Y002930D02*
X004247Y003030D01*
X004253Y003131D01*
X004263Y003230D01*
X004277Y003330D01*
X004294Y003429D01*
X004316Y003527D01*
X004342Y003624D01*
X004371Y003720D01*
X004404Y003814D01*
X004441Y003908D01*
X004481Y004000D01*
X004525Y004090D01*
X004573Y004178D01*
X004624Y004265D01*
X004678Y004349D01*
X004736Y004431D01*
X004797Y004511D01*
X004861Y004588D01*
X004928Y004663D01*
X004998Y004735D01*
X005071Y004804D01*
X005146Y004870D01*
X005224Y004934D01*
X005304Y004994D01*
X005387Y005051D01*
X005472Y005104D01*
X005559Y005154D01*
X005648Y005201D01*
X005738Y005244D01*
X005830Y005284D01*
X005924Y005320D01*
X006019Y005352D01*
X006115Y005380D01*
X006213Y005405D01*
X006311Y005425D01*
X006410Y005442D01*
X006510Y005455D01*
X006609Y005464D01*
X006710Y005469D01*
X006810Y005470D01*
X006910Y005467D01*
X007011Y005460D01*
X007110Y005449D01*
X007210Y005434D01*
X007308Y005416D01*
X007406Y005393D01*
X007503Y005366D01*
X007598Y005336D01*
X007693Y005302D01*
X007786Y005264D01*
X007877Y005223D01*
X007967Y005178D01*
X008055Y005130D01*
X008141Y005078D01*
X008225Y005023D01*
X008306Y004964D01*
X008385Y004902D01*
X008462Y004838D01*
X008536Y004770D01*
X008607Y004699D01*
X008676Y004626D01*
X008741Y004550D01*
X008804Y004471D01*
X008863Y004390D01*
X008919Y004307D01*
X008972Y004222D01*
X009021Y004134D01*
X009067Y004045D01*
X009109Y003954D01*
X009148Y003861D01*
X009183Y003767D01*
X009214Y003672D01*
X009242Y003575D01*
X009265Y003478D01*
X009285Y003379D01*
X009301Y003280D01*
X009313Y003181D01*
X009321Y003080D01*
X009325Y002980D01*
X009325Y002880D01*
X009321Y002780D01*
X009313Y002679D01*
X009301Y002580D01*
X009285Y002481D01*
X009265Y002382D01*
X009242Y002285D01*
X009214Y002188D01*
X009183Y002093D01*
X009148Y001999D01*
X009109Y001906D01*
X009067Y001815D01*
X009021Y001726D01*
X008972Y001638D01*
X008919Y001553D01*
X008863Y001470D01*
X008804Y001389D01*
X008741Y001310D01*
X008676Y001234D01*
X008607Y001161D01*
X008536Y001090D01*
X008462Y001022D01*
X008385Y000958D01*
X008306Y000896D01*
X008225Y000837D01*
X008141Y000782D01*
X008055Y000730D01*
X007967Y000682D01*
X007877Y000637D01*
X007786Y000596D01*
X007693Y000558D01*
X007598Y000524D01*
X007503Y000494D01*
X007406Y000467D01*
X007308Y000444D01*
X007210Y000426D01*
X007110Y000411D01*
X007011Y000400D01*
X006910Y000393D01*
X006810Y000390D01*
X006710Y000391D01*
X006609Y000396D01*
X006510Y000405D01*
X006410Y000418D01*
X006311Y000435D01*
X006213Y000455D01*
X006115Y000480D01*
X006019Y000508D01*
X005924Y000540D01*
X005830Y000576D01*
X005738Y000616D01*
X005648Y000659D01*
X005559Y000706D01*
X005472Y000756D01*
X005387Y000809D01*
X005304Y000866D01*
X005224Y000926D01*
X005146Y000990D01*
X005071Y001056D01*
X004998Y001125D01*
X004928Y001197D01*
X004861Y001272D01*
X004797Y001349D01*
X004736Y001429D01*
X004678Y001511D01*
X004624Y001595D01*
X004573Y001682D01*
X004525Y001770D01*
X004481Y001860D01*
X004441Y001952D01*
X004404Y002046D01*
X004371Y002140D01*
X004342Y002236D01*
X004316Y002333D01*
X004294Y002431D01*
X004277Y002530D01*
X004263Y002630D01*
X004253Y002729D01*
X004247Y002830D01*
X004245Y002930D01*
X004825Y001950D02*
X007325Y001950D01*
X007325Y002950D01*
X007325Y003950D02*
X008825Y003950D01*
X009325Y003450D02*
X009325Y002450D01*
X008825Y001950D02*
X007325Y001950D01*
X010553Y001950D02*
X010553Y000966D01*
X010750Y000769D01*
X011931Y000769D01*
X012128Y000966D01*
X012128Y001950D01*
X011931Y002147D01*
X010750Y002147D01*
X010553Y001950D01*
X011144Y001556D02*
X011538Y001556D01*
X011538Y001359D02*
X011341Y001163D01*
X011341Y001359D02*
X011341Y001556D01*
X011538Y001163D02*
X011144Y001163D01*
X016100Y004975D02*
X016100Y005425D01*
X015950Y005425D02*
X016250Y005425D01*
X016410Y005425D02*
X016410Y004975D01*
X016410Y005125D02*
X016636Y005125D01*
X016711Y005200D01*
X016711Y005350D01*
X016636Y005425D01*
X016410Y005425D01*
X016871Y005350D02*
X016946Y005425D01*
X017096Y005425D01*
X017171Y005350D01*
X017171Y005275D01*
X016871Y004975D01*
X017171Y004975D01*
X017331Y005200D02*
X017631Y005200D01*
X017556Y004975D02*
X017556Y005425D01*
X017331Y005200D01*
X017450Y003925D02*
X017750Y003925D01*
X017600Y003925D02*
X017600Y003475D01*
X017910Y003475D02*
X017910Y003925D01*
X018136Y003925D01*
X018211Y003850D01*
X018211Y003700D01*
X018136Y003625D01*
X017910Y003625D01*
X018371Y003475D02*
X018671Y003775D01*
X018671Y003850D01*
X018596Y003925D01*
X018446Y003925D01*
X018371Y003850D01*
X018371Y003475D02*
X018671Y003475D01*
X018831Y003550D02*
X018906Y003475D01*
X019056Y003475D01*
X019131Y003550D01*
X019131Y003700D01*
X019056Y003775D01*
X018981Y003775D01*
X018831Y003700D01*
X018831Y003925D01*
X019131Y003925D01*
X018266Y002237D02*
X023384Y002237D01*
X023384Y000663D01*
X018266Y000663D01*
X018266Y002237D01*
X022600Y004975D02*
X022600Y005425D01*
X022450Y005425D02*
X022750Y005425D01*
X022910Y005425D02*
X022910Y004975D01*
X022910Y005125D02*
X023136Y005125D01*
X023211Y005200D01*
X023211Y005350D01*
X023136Y005425D01*
X022910Y005425D01*
X023371Y005425D02*
X023671Y005425D01*
X023671Y005350D01*
X023371Y005050D01*
X023371Y004975D01*
X025950Y004425D02*
X026250Y004425D01*
X026100Y004425D02*
X026100Y003975D01*
X026410Y003975D02*
X026410Y004425D01*
X026636Y004425D01*
X026711Y004350D01*
X026711Y004200D01*
X026636Y004125D01*
X026410Y004125D01*
X026871Y003975D02*
X027171Y003975D01*
X027021Y003975D02*
X027021Y004425D01*
X026871Y004275D01*
X027100Y004475D02*
X027100Y004925D01*
X026950Y004925D02*
X027250Y004925D01*
X027410Y004925D02*
X027636Y004925D01*
X027711Y004850D01*
X027711Y004700D01*
X027636Y004625D01*
X027410Y004625D01*
X027410Y004475D02*
X027410Y004925D01*
X027871Y004775D02*
X028021Y004925D01*
X028021Y004475D01*
X027871Y004475D02*
X028171Y004475D01*
X028331Y004475D02*
X028631Y004475D01*
X028481Y004475D02*
X028481Y004925D01*
X028331Y004775D01*
X028950Y004925D02*
X029250Y004925D01*
X029100Y004925D02*
X029100Y004475D01*
X029410Y004475D02*
X029410Y004925D01*
X029636Y004925D01*
X029711Y004850D01*
X029711Y004700D01*
X029636Y004625D01*
X029410Y004625D01*
X029871Y004475D02*
X030171Y004475D01*
X030021Y004475D02*
X030021Y004925D01*
X029871Y004775D01*
X030331Y004850D02*
X030406Y004925D01*
X030556Y004925D01*
X030631Y004850D01*
X030631Y004775D01*
X030331Y004475D01*
X030631Y004475D01*
X031450Y004925D02*
X031750Y004925D01*
X031600Y004925D02*
X031600Y004475D01*
X031910Y004475D02*
X031910Y004925D01*
X032136Y004925D01*
X032211Y004850D01*
X032211Y004700D01*
X032136Y004625D01*
X031910Y004625D01*
X032371Y004475D02*
X032671Y004475D01*
X032521Y004475D02*
X032521Y004925D01*
X032371Y004775D01*
X032831Y004850D02*
X032906Y004925D01*
X033056Y004925D01*
X033131Y004850D01*
X033131Y004775D01*
X033056Y004700D01*
X033131Y004625D01*
X033131Y004550D01*
X033056Y004475D01*
X032906Y004475D01*
X032831Y004550D01*
X032981Y004700D02*
X033056Y004700D01*
X032966Y002645D02*
X032816Y002645D01*
X032741Y002570D01*
X032581Y002570D02*
X032581Y002420D01*
X032506Y002345D01*
X032280Y002345D01*
X032280Y002195D02*
X032280Y002645D01*
X032506Y002645D01*
X032581Y002570D01*
X032741Y002270D02*
X032816Y002195D01*
X032966Y002195D01*
X033041Y002270D01*
X033041Y002345D01*
X032966Y002420D01*
X032891Y002420D01*
X032966Y002420D02*
X033041Y002495D01*
X033041Y002570D01*
X032966Y002645D01*
X032120Y002645D02*
X031970Y002645D01*
X032045Y002645D02*
X032045Y002270D01*
X031970Y002195D01*
X031895Y002195D01*
X031820Y002270D01*
X031250Y002300D02*
X031250Y002375D01*
X031175Y002450D01*
X030950Y002450D01*
X030950Y002300D01*
X031025Y002225D01*
X031175Y002225D01*
X031250Y002300D01*
X031100Y002600D02*
X030950Y002450D01*
X031100Y002600D02*
X031250Y002675D01*
X029071Y003125D02*
X028771Y003125D01*
X028921Y003125D02*
X028921Y003575D01*
X028771Y003425D01*
X028611Y003275D02*
X028611Y003575D01*
X028611Y003275D02*
X028461Y003125D01*
X028310Y003275D01*
X028310Y003575D01*
X028150Y003500D02*
X028075Y003575D01*
X027925Y003575D01*
X027850Y003500D01*
X027850Y003425D01*
X027925Y003350D01*
X028075Y003350D01*
X028150Y003275D01*
X028150Y003200D01*
X028075Y003125D01*
X027925Y003125D01*
X027850Y003200D01*
X027556Y003975D02*
X027406Y003975D01*
X027331Y004050D01*
X027631Y004350D01*
X027631Y004050D01*
X027556Y003975D01*
X027331Y004050D02*
X027331Y004350D01*
X027406Y004425D01*
X027556Y004425D01*
X027631Y004350D01*
X031600Y007475D02*
X031600Y007925D01*
X031450Y007925D02*
X031750Y007925D01*
X031910Y007925D02*
X032136Y007925D01*
X032211Y007850D01*
X032211Y007700D01*
X032136Y007625D01*
X031910Y007625D01*
X031910Y007475D02*
X031910Y007925D01*
X032371Y007775D02*
X032521Y007925D01*
X032521Y007475D01*
X032371Y007475D02*
X032671Y007475D01*
X032831Y007550D02*
X032906Y007475D01*
X033056Y007475D01*
X033131Y007550D01*
X033131Y007625D01*
X033056Y007700D01*
X032906Y007700D01*
X032831Y007775D01*
X032831Y007850D01*
X032906Y007925D01*
X033056Y007925D01*
X033131Y007850D01*
X033131Y007775D01*
X033056Y007700D01*
X032906Y007700D02*
X032831Y007625D01*
X032831Y007550D01*
X029171Y009050D02*
X029096Y008975D01*
X028946Y008975D01*
X028871Y009050D01*
X028871Y009125D01*
X028946Y009200D01*
X029096Y009200D01*
X029171Y009125D01*
X029171Y009050D01*
X029096Y009200D02*
X029171Y009275D01*
X029171Y009350D01*
X029096Y009425D01*
X028946Y009425D01*
X028871Y009350D01*
X028871Y009275D01*
X028946Y009200D01*
X028711Y009200D02*
X028636Y009125D01*
X028410Y009125D01*
X028410Y008975D02*
X028410Y009425D01*
X028636Y009425D01*
X028711Y009350D01*
X028711Y009200D01*
X028250Y009425D02*
X027950Y009425D01*
X028100Y009425D02*
X028100Y008975D01*
X030100Y010975D02*
X030100Y011425D01*
X029950Y011425D02*
X030250Y011425D01*
X030410Y011425D02*
X030636Y011425D01*
X030711Y011350D01*
X030711Y011200D01*
X030636Y011125D01*
X030410Y011125D01*
X030410Y010975D02*
X030410Y011425D01*
X030871Y011275D02*
X031021Y011425D01*
X031021Y010975D01*
X030871Y010975D02*
X031171Y010975D01*
X031331Y011200D02*
X031631Y011200D01*
X031556Y010975D02*
X031556Y011425D01*
X031331Y011200D01*
X031406Y014975D02*
X031331Y015050D01*
X031406Y014975D02*
X031556Y014975D01*
X031631Y015050D01*
X031631Y015200D01*
X031556Y015275D01*
X031481Y015275D01*
X031331Y015200D01*
X031331Y015425D01*
X031631Y015425D01*
X031021Y015425D02*
X031021Y014975D01*
X030871Y014975D02*
X031171Y014975D01*
X030871Y015275D02*
X031021Y015425D01*
X030711Y015350D02*
X030711Y015200D01*
X030636Y015125D01*
X030410Y015125D01*
X030410Y014975D02*
X030410Y015425D01*
X030636Y015425D01*
X030711Y015350D01*
X030250Y015425D02*
X029950Y015425D01*
X030100Y015425D02*
X030100Y014975D01*
X037569Y016891D02*
X037569Y012009D01*
X043081Y012009D01*
X043081Y016891D01*
X037569Y016891D01*
X038825Y009450D02*
X039325Y009450D01*
X039325Y008450D01*
X038325Y008450D01*
X038325Y007950D01*
X038325Y008450D02*
X038325Y008950D01*
X039325Y009450D02*
X041325Y009450D01*
X040325Y008450D01*
X038245Y008430D02*
X038247Y008530D01*
X038253Y008631D01*
X038263Y008730D01*
X038277Y008830D01*
X038294Y008929D01*
X038316Y009027D01*
X038342Y009124D01*
X038371Y009220D01*
X038404Y009314D01*
X038441Y009408D01*
X038481Y009500D01*
X038525Y009590D01*
X038573Y009678D01*
X038624Y009765D01*
X038678Y009849D01*
X038736Y009931D01*
X038797Y010011D01*
X038861Y010088D01*
X038928Y010163D01*
X038998Y010235D01*
X039071Y010304D01*
X039146Y010370D01*
X039224Y010434D01*
X039304Y010494D01*
X039387Y010551D01*
X039472Y010604D01*
X039559Y010654D01*
X039648Y010701D01*
X039738Y010744D01*
X039830Y010784D01*
X039924Y010820D01*
X040019Y010852D01*
X040115Y010880D01*
X040213Y010905D01*
X040311Y010925D01*
X040410Y010942D01*
X040510Y010955D01*
X040609Y010964D01*
X040710Y010969D01*
X040810Y010970D01*
X040910Y010967D01*
X041011Y010960D01*
X041110Y010949D01*
X041210Y010934D01*
X041308Y010916D01*
X041406Y010893D01*
X041503Y010866D01*
X041598Y010836D01*
X041693Y010802D01*
X041786Y010764D01*
X041877Y010723D01*
X041967Y010678D01*
X042055Y010630D01*
X042141Y010578D01*
X042225Y010523D01*
X042306Y010464D01*
X042385Y010402D01*
X042462Y010338D01*
X042536Y010270D01*
X042607Y010199D01*
X042676Y010126D01*
X042741Y010050D01*
X042804Y009971D01*
X042863Y009890D01*
X042919Y009807D01*
X042972Y009722D01*
X043021Y009634D01*
X043067Y009545D01*
X043109Y009454D01*
X043148Y009361D01*
X043183Y009267D01*
X043214Y009172D01*
X043242Y009075D01*
X043265Y008978D01*
X043285Y008879D01*
X043301Y008780D01*
X043313Y008681D01*
X043321Y008580D01*
X043325Y008480D01*
X043325Y008380D01*
X043321Y008280D01*
X043313Y008179D01*
X043301Y008080D01*
X043285Y007981D01*
X043265Y007882D01*
X043242Y007785D01*
X043214Y007688D01*
X043183Y007593D01*
X043148Y007499D01*
X043109Y007406D01*
X043067Y007315D01*
X043021Y007226D01*
X042972Y007138D01*
X042919Y007053D01*
X042863Y006970D01*
X042804Y006889D01*
X042741Y006810D01*
X042676Y006734D01*
X042607Y006661D01*
X042536Y006590D01*
X042462Y006522D01*
X042385Y006458D01*
X042306Y006396D01*
X042225Y006337D01*
X042141Y006282D01*
X042055Y006230D01*
X041967Y006182D01*
X041877Y006137D01*
X041786Y006096D01*
X041693Y006058D01*
X041598Y006024D01*
X041503Y005994D01*
X041406Y005967D01*
X041308Y005944D01*
X041210Y005926D01*
X041110Y005911D01*
X041011Y005900D01*
X040910Y005893D01*
X040810Y005890D01*
X040710Y005891D01*
X040609Y005896D01*
X040510Y005905D01*
X040410Y005918D01*
X040311Y005935D01*
X040213Y005955D01*
X040115Y005980D01*
X040019Y006008D01*
X039924Y006040D01*
X039830Y006076D01*
X039738Y006116D01*
X039648Y006159D01*
X039559Y006206D01*
X039472Y006256D01*
X039387Y006309D01*
X039304Y006366D01*
X039224Y006426D01*
X039146Y006490D01*
X039071Y006556D01*
X038998Y006625D01*
X038928Y006697D01*
X038861Y006772D01*
X038797Y006849D01*
X038736Y006929D01*
X038678Y007011D01*
X038624Y007095D01*
X038573Y007182D01*
X038525Y007270D01*
X038481Y007360D01*
X038441Y007452D01*
X038404Y007546D01*
X038371Y007640D01*
X038342Y007736D01*
X038316Y007833D01*
X038294Y007931D01*
X038277Y008030D01*
X038263Y008130D01*
X038253Y008229D01*
X038247Y008330D01*
X038245Y008430D01*
X038825Y007450D02*
X041325Y007450D01*
X041325Y008450D01*
X041325Y007450D02*
X042825Y007450D01*
X043325Y007950D02*
X043325Y008950D01*
X042825Y009450D02*
X041325Y009450D01*
X041325Y003950D02*
X039325Y003950D01*
X039325Y002950D01*
X038325Y002950D01*
X038325Y002450D01*
X038325Y002950D02*
X038325Y003450D01*
X038825Y003950D02*
X039325Y003950D01*
X040325Y002950D02*
X041325Y003950D01*
X042825Y003950D01*
X043325Y003450D02*
X043325Y002450D01*
X042825Y001950D02*
X041325Y001950D01*
X041325Y002950D01*
X038245Y002930D02*
X038247Y003030D01*
X038253Y003131D01*
X038263Y003230D01*
X038277Y003330D01*
X038294Y003429D01*
X038316Y003527D01*
X038342Y003624D01*
X038371Y003720D01*
X038404Y003814D01*
X038441Y003908D01*
X038481Y004000D01*
X038525Y004090D01*
X038573Y004178D01*
X038624Y004265D01*
X038678Y004349D01*
X038736Y004431D01*
X038797Y004511D01*
X038861Y004588D01*
X038928Y004663D01*
X038998Y004735D01*
X039071Y004804D01*
X039146Y004870D01*
X039224Y004934D01*
X039304Y004994D01*
X039387Y005051D01*
X039472Y005104D01*
X039559Y005154D01*
X039648Y005201D01*
X039738Y005244D01*
X039830Y005284D01*
X039924Y005320D01*
X040019Y005352D01*
X040115Y005380D01*
X040213Y005405D01*
X040311Y005425D01*
X040410Y005442D01*
X040510Y005455D01*
X040609Y005464D01*
X040710Y005469D01*
X040810Y005470D01*
X040910Y005467D01*
X041011Y005460D01*
X041110Y005449D01*
X041210Y005434D01*
X041308Y005416D01*
X041406Y005393D01*
X041503Y005366D01*
X041598Y005336D01*
X041693Y005302D01*
X041786Y005264D01*
X041877Y005223D01*
X041967Y005178D01*
X042055Y005130D01*
X042141Y005078D01*
X042225Y005023D01*
X042306Y004964D01*
X042385Y004902D01*
X042462Y004838D01*
X042536Y004770D01*
X042607Y004699D01*
X042676Y004626D01*
X042741Y004550D01*
X042804Y004471D01*
X042863Y004390D01*
X042919Y004307D01*
X042972Y004222D01*
X043021Y004134D01*
X043067Y004045D01*
X043109Y003954D01*
X043148Y003861D01*
X043183Y003767D01*
X043214Y003672D01*
X043242Y003575D01*
X043265Y003478D01*
X043285Y003379D01*
X043301Y003280D01*
X043313Y003181D01*
X043321Y003080D01*
X043325Y002980D01*
X043325Y002880D01*
X043321Y002780D01*
X043313Y002679D01*
X043301Y002580D01*
X043285Y002481D01*
X043265Y002382D01*
X043242Y002285D01*
X043214Y002188D01*
X043183Y002093D01*
X043148Y001999D01*
X043109Y001906D01*
X043067Y001815D01*
X043021Y001726D01*
X042972Y001638D01*
X042919Y001553D01*
X042863Y001470D01*
X042804Y001389D01*
X042741Y001310D01*
X042676Y001234D01*
X042607Y001161D01*
X042536Y001090D01*
X042462Y001022D01*
X042385Y000958D01*
X042306Y000896D01*
X042225Y000837D01*
X042141Y000782D01*
X042055Y000730D01*
X041967Y000682D01*
X041877Y000637D01*
X041786Y000596D01*
X041693Y000558D01*
X041598Y000524D01*
X041503Y000494D01*
X041406Y000467D01*
X041308Y000444D01*
X041210Y000426D01*
X041110Y000411D01*
X041011Y000400D01*
X040910Y000393D01*
X040810Y000390D01*
X040710Y000391D01*
X040609Y000396D01*
X040510Y000405D01*
X040410Y000418D01*
X040311Y000435D01*
X040213Y000455D01*
X040115Y000480D01*
X040019Y000508D01*
X039924Y000540D01*
X039830Y000576D01*
X039738Y000616D01*
X039648Y000659D01*
X039559Y000706D01*
X039472Y000756D01*
X039387Y000809D01*
X039304Y000866D01*
X039224Y000926D01*
X039146Y000990D01*
X039071Y001056D01*
X038998Y001125D01*
X038928Y001197D01*
X038861Y001272D01*
X038797Y001349D01*
X038736Y001429D01*
X038678Y001511D01*
X038624Y001595D01*
X038573Y001682D01*
X038525Y001770D01*
X038481Y001860D01*
X038441Y001952D01*
X038404Y002046D01*
X038371Y002140D01*
X038342Y002236D01*
X038316Y002333D01*
X038294Y002431D01*
X038277Y002530D01*
X038263Y002630D01*
X038253Y002729D01*
X038247Y002830D01*
X038245Y002930D01*
X038825Y001950D02*
X041325Y001950D01*
X028400Y000325D02*
X028100Y000325D01*
X028250Y000325D02*
X028250Y000775D01*
X028100Y000625D01*
X020171Y006050D02*
X020171Y006200D01*
X020096Y006275D01*
X020021Y006275D01*
X019871Y006200D01*
X019871Y006425D01*
X020171Y006425D01*
X020171Y006050D02*
X020096Y005975D01*
X019946Y005975D01*
X019871Y006050D01*
X019711Y006200D02*
X019636Y006125D01*
X019410Y006125D01*
X019410Y005975D02*
X019410Y006425D01*
X019636Y006425D01*
X019711Y006350D01*
X019711Y006200D01*
X019250Y006425D02*
X018950Y006425D01*
X019100Y006425D02*
X019100Y005975D01*
X017631Y007050D02*
X017556Y006975D01*
X017406Y006975D01*
X017331Y007050D01*
X017171Y006975D02*
X016871Y006975D01*
X017171Y007275D01*
X017171Y007350D01*
X017096Y007425D01*
X016946Y007425D01*
X016871Y007350D01*
X016711Y007350D02*
X016711Y007200D01*
X016636Y007125D01*
X016410Y007125D01*
X016410Y006975D02*
X016410Y007425D01*
X016636Y007425D01*
X016711Y007350D01*
X017331Y007350D02*
X017406Y007425D01*
X017556Y007425D01*
X017631Y007350D01*
X017631Y007275D01*
X017556Y007200D01*
X017631Y007125D01*
X017631Y007050D01*
X017556Y007200D02*
X017481Y007200D01*
X016250Y007425D02*
X015950Y007425D01*
X016100Y007425D02*
X016100Y006975D01*
X019100Y007975D02*
X019100Y008425D01*
X018950Y008425D02*
X019250Y008425D01*
X019410Y008425D02*
X019410Y007975D01*
X019410Y008125D02*
X019636Y008125D01*
X019711Y008200D01*
X019711Y008350D01*
X019636Y008425D01*
X019410Y008425D01*
X019871Y008200D02*
X019871Y008050D01*
X019946Y007975D01*
X020096Y007975D01*
X020171Y008050D01*
X020171Y008125D01*
X020096Y008200D01*
X019871Y008200D01*
X020021Y008350D01*
X020171Y008425D01*
X020026Y025237D02*
X020026Y025631D01*
D15*
X018837Y023950D02*
X018813Y023950D01*
X016337Y023950D02*
X016313Y023950D01*
X020325Y020462D02*
X020325Y020438D01*
X022813Y020950D02*
X022837Y020950D01*
X024325Y020462D02*
X024325Y020438D01*
X028313Y024950D02*
X028337Y024950D01*
X023837Y027950D02*
X023813Y027950D01*
X022337Y027950D02*
X022313Y027950D01*
X021337Y027950D02*
X021313Y027950D01*
X020337Y027950D02*
X020313Y027950D01*
X013825Y028938D02*
X013825Y028962D01*
X011825Y031438D02*
X011825Y031462D01*
X008825Y027962D02*
X008825Y027938D01*
X009813Y020450D02*
X009837Y020450D01*
X009837Y018450D02*
X009813Y018450D01*
X015325Y011462D02*
X015325Y011438D01*
X019813Y008950D02*
X019837Y008950D01*
X024325Y005962D02*
X024325Y005938D01*
X027313Y010950D02*
X027337Y010950D01*
X024325Y013438D02*
X024325Y013462D01*
X034313Y006450D02*
X034337Y006450D01*
X036313Y006450D02*
X036337Y006450D01*
D16*
X036630Y006535D02*
X036655Y006510D01*
X036755Y006510D01*
X036780Y006535D01*
X036780Y006585D01*
X036755Y006610D01*
X036755Y006658D02*
X036780Y006658D01*
X036755Y006658D02*
X036655Y006758D01*
X036630Y006758D01*
X036630Y006658D01*
X036655Y006610D02*
X036630Y006585D01*
X036630Y006535D01*
X037980Y006405D02*
X038055Y006405D01*
X038080Y006380D01*
X038080Y006330D01*
X038055Y006305D01*
X037980Y006305D01*
X037980Y006255D02*
X037980Y006405D01*
X038030Y006305D02*
X038080Y006255D01*
X038127Y006255D02*
X038227Y006255D01*
X038177Y006255D02*
X038177Y006405D01*
X038127Y006355D01*
X036375Y005380D02*
X036375Y005355D01*
X036350Y005330D01*
X036375Y005305D01*
X036375Y005280D01*
X036350Y005255D01*
X036300Y005255D01*
X036275Y005280D01*
X036227Y005255D02*
X036127Y005255D01*
X036080Y005255D02*
X036030Y005305D01*
X036055Y005305D02*
X035980Y005305D01*
X035980Y005255D02*
X035980Y005405D01*
X036055Y005405D01*
X036080Y005380D01*
X036080Y005330D01*
X036055Y005305D01*
X036127Y005355D02*
X036177Y005405D01*
X036177Y005255D01*
X036275Y005380D02*
X036300Y005405D01*
X036350Y005405D01*
X036375Y005380D01*
X036350Y005330D02*
X036325Y005330D01*
X036202Y004405D02*
X036152Y004405D01*
X036127Y004380D01*
X036080Y004380D02*
X036080Y004330D01*
X036055Y004305D01*
X035980Y004305D01*
X035980Y004255D02*
X035980Y004405D01*
X036055Y004405D01*
X036080Y004380D01*
X036030Y004305D02*
X036080Y004255D01*
X036127Y004255D02*
X036227Y004355D01*
X036227Y004380D01*
X036202Y004405D01*
X036227Y004255D02*
X036127Y004255D01*
X036177Y003405D02*
X036177Y003255D01*
X036127Y003255D02*
X036227Y003255D01*
X036275Y003255D02*
X036375Y003355D01*
X036375Y003380D01*
X036350Y003405D01*
X036300Y003405D01*
X036275Y003380D01*
X036177Y003405D02*
X036127Y003355D01*
X036080Y003330D02*
X036055Y003305D01*
X035980Y003305D01*
X035980Y003255D02*
X035980Y003405D01*
X036055Y003405D01*
X036080Y003380D01*
X036080Y003330D01*
X036030Y003305D02*
X036080Y003255D01*
X036275Y003255D02*
X036375Y003255D01*
X034755Y006510D02*
X034655Y006510D01*
X034630Y006535D01*
X034630Y006585D01*
X034655Y006610D01*
X034705Y006658D02*
X034655Y006708D01*
X034630Y006758D01*
X034705Y006733D02*
X034705Y006658D01*
X034755Y006658D01*
X034780Y006683D01*
X034780Y006733D01*
X034755Y006758D01*
X034730Y006758D01*
X034705Y006733D01*
X034755Y006610D02*
X034780Y006585D01*
X034780Y006535D01*
X034755Y006510D01*
X032627Y011255D02*
X032627Y011280D01*
X032727Y011380D01*
X032727Y011405D01*
X032627Y011405D01*
X032580Y011380D02*
X032555Y011405D01*
X032480Y011405D01*
X032480Y011255D01*
X032480Y011305D02*
X032555Y011305D01*
X032580Y011330D01*
X032580Y011380D01*
X032530Y011305D02*
X032580Y011255D01*
X032580Y012255D02*
X032530Y012305D01*
X032555Y012305D02*
X032480Y012305D01*
X032480Y012255D02*
X032480Y012405D01*
X032555Y012405D01*
X032580Y012380D01*
X032580Y012330D01*
X032555Y012305D01*
X032627Y012280D02*
X032652Y012255D01*
X032702Y012255D01*
X032727Y012280D01*
X032727Y012330D01*
X032702Y012355D01*
X032677Y012355D01*
X032627Y012330D01*
X032627Y012405D01*
X032727Y012405D01*
X035005Y011880D02*
X035005Y011755D01*
X035030Y011730D01*
X035080Y011730D01*
X035105Y011755D01*
X035105Y011880D01*
X035152Y011855D02*
X035177Y011880D01*
X035227Y011880D01*
X035252Y011855D01*
X035300Y011830D02*
X035350Y011880D01*
X035350Y011730D01*
X035300Y011730D02*
X035400Y011730D01*
X035447Y011730D02*
X035547Y011830D01*
X035547Y011855D01*
X035522Y011880D01*
X035472Y011880D01*
X035447Y011855D01*
X035447Y011730D02*
X035547Y011730D01*
X035252Y011755D02*
X035252Y011780D01*
X035227Y011805D01*
X035177Y011805D01*
X035152Y011830D01*
X035152Y011855D01*
X035202Y011905D02*
X035202Y011705D01*
X035177Y011730D02*
X035227Y011730D01*
X035252Y011755D01*
X035177Y011730D02*
X035152Y011755D01*
X032108Y017520D02*
X032058Y017520D01*
X032033Y017545D01*
X031985Y017545D02*
X031985Y017645D01*
X031960Y017670D01*
X031885Y017670D01*
X031885Y017520D01*
X031960Y017520D01*
X031985Y017545D01*
X032083Y017595D02*
X032108Y017595D01*
X032133Y017570D01*
X032133Y017545D01*
X032108Y017520D01*
X032108Y017595D02*
X032133Y017620D01*
X032133Y017645D01*
X032108Y017670D01*
X032058Y017670D01*
X032033Y017645D01*
X031838Y017670D02*
X031738Y017670D01*
X031738Y017520D01*
X031838Y017520D01*
X031788Y017595D02*
X031738Y017595D01*
X031691Y017520D02*
X031591Y017520D01*
X031591Y017670D01*
X031591Y018520D02*
X031691Y018520D01*
X031738Y018520D02*
X031838Y018520D01*
X031885Y018520D02*
X031960Y018520D01*
X031985Y018545D01*
X031985Y018645D01*
X031960Y018670D01*
X031885Y018670D01*
X031885Y018520D01*
X031788Y018595D02*
X031738Y018595D01*
X031738Y018670D02*
X031738Y018520D01*
X031591Y018520D02*
X031591Y018670D01*
X031738Y018670D02*
X031838Y018670D01*
X032033Y018645D02*
X032058Y018670D01*
X032108Y018670D01*
X032133Y018645D01*
X032133Y018620D01*
X032033Y018520D01*
X032133Y018520D01*
X032980Y018405D02*
X033055Y018405D01*
X033080Y018380D01*
X033080Y018330D01*
X033055Y018305D01*
X032980Y018305D01*
X032980Y018255D02*
X032980Y018405D01*
X033030Y018305D02*
X033080Y018255D01*
X033127Y018255D02*
X033227Y018255D01*
X033177Y018255D02*
X033177Y018405D01*
X033127Y018355D01*
X033275Y018330D02*
X033325Y018355D01*
X033350Y018355D01*
X033375Y018330D01*
X033375Y018280D01*
X033350Y018255D01*
X033300Y018255D01*
X033275Y018280D01*
X033275Y018330D02*
X033275Y018405D01*
X033375Y018405D01*
X033350Y019255D02*
X033350Y019405D01*
X033275Y019330D01*
X033375Y019330D01*
X033227Y019255D02*
X033127Y019255D01*
X033080Y019255D02*
X033030Y019305D01*
X033055Y019305D02*
X032980Y019305D01*
X032980Y019255D02*
X032980Y019405D01*
X033055Y019405D01*
X033080Y019380D01*
X033080Y019330D01*
X033055Y019305D01*
X033127Y019355D02*
X033177Y019405D01*
X033177Y019255D01*
X032133Y019520D02*
X032033Y019520D01*
X032083Y019520D02*
X032083Y019670D01*
X032033Y019620D01*
X031985Y019645D02*
X031960Y019670D01*
X031885Y019670D01*
X031885Y019520D01*
X031960Y019520D01*
X031985Y019545D01*
X031985Y019645D01*
X031838Y019670D02*
X031738Y019670D01*
X031738Y019520D01*
X031838Y019520D01*
X031788Y019595D02*
X031738Y019595D01*
X031691Y019520D02*
X031591Y019520D01*
X031591Y019670D01*
X032980Y020255D02*
X032980Y020405D01*
X033055Y020405D01*
X033080Y020380D01*
X033080Y020330D01*
X033055Y020305D01*
X032980Y020305D01*
X033030Y020305D02*
X033080Y020255D01*
X033127Y020280D02*
X033152Y020255D01*
X033202Y020255D01*
X033227Y020280D01*
X033227Y020305D01*
X033202Y020330D01*
X033127Y020330D01*
X033127Y020280D01*
X033127Y020330D02*
X033177Y020380D01*
X033227Y020405D01*
X034355Y021955D02*
X034405Y021955D01*
X034430Y021980D01*
X034430Y022105D01*
X034477Y022080D02*
X034502Y022105D01*
X034552Y022105D01*
X034577Y022080D01*
X034625Y022055D02*
X034675Y022105D01*
X034675Y021955D01*
X034625Y021955D02*
X034725Y021955D01*
X034772Y021980D02*
X034872Y022080D01*
X034872Y021980D01*
X034847Y021955D01*
X034797Y021955D01*
X034772Y021980D01*
X034772Y022080D01*
X034797Y022105D01*
X034847Y022105D01*
X034872Y022080D01*
X034577Y022005D02*
X034552Y022030D01*
X034502Y022030D01*
X034477Y022055D01*
X034477Y022080D01*
X034527Y022130D02*
X034527Y021930D01*
X034502Y021955D02*
X034552Y021955D01*
X034577Y021980D01*
X034577Y022005D01*
X034502Y021955D02*
X034477Y021980D01*
X034355Y021955D02*
X034330Y021980D01*
X034330Y022105D01*
X031633Y022995D02*
X031533Y022995D01*
X031485Y022995D02*
X031435Y023045D01*
X031410Y022995D02*
X031385Y023020D01*
X031385Y023120D01*
X031410Y023145D01*
X031460Y023145D01*
X031485Y023120D01*
X031485Y023020D01*
X031460Y022995D01*
X031410Y022995D01*
X031533Y023095D02*
X031583Y023145D01*
X031583Y022995D01*
X028780Y025035D02*
X028780Y025085D01*
X028755Y025110D01*
X028755Y025158D02*
X028780Y025183D01*
X028780Y025233D01*
X028755Y025258D01*
X028655Y025258D01*
X028630Y025233D01*
X028630Y025183D01*
X028655Y025158D01*
X028680Y025158D01*
X028705Y025183D01*
X028705Y025258D01*
X028655Y025110D02*
X028630Y025085D01*
X028630Y025035D01*
X028655Y025010D01*
X028755Y025010D01*
X028780Y025035D01*
X030980Y025755D02*
X030980Y025905D01*
X031055Y025905D01*
X031080Y025880D01*
X031080Y025830D01*
X031055Y025805D01*
X030980Y025805D01*
X031030Y025805D02*
X031080Y025755D01*
X031127Y025755D02*
X031227Y025855D01*
X031227Y025880D01*
X031202Y025905D01*
X031152Y025905D01*
X031127Y025880D01*
X031127Y025755D02*
X031227Y025755D01*
X031275Y025780D02*
X031375Y025880D01*
X031375Y025780D01*
X031350Y025755D01*
X031300Y025755D01*
X031275Y025780D01*
X031275Y025880D01*
X031300Y025905D01*
X031350Y025905D01*
X031375Y025880D01*
X024280Y027888D02*
X024280Y027938D01*
X024255Y027963D01*
X024280Y028010D02*
X024280Y028110D01*
X024280Y028158D02*
X024280Y028258D01*
X024280Y028208D02*
X024130Y028208D01*
X024180Y028158D01*
X024130Y028060D02*
X024280Y028060D01*
X024180Y028010D02*
X024130Y028060D01*
X024155Y027963D02*
X024130Y027938D01*
X024130Y027888D01*
X024155Y027863D01*
X024255Y027863D01*
X024280Y027888D01*
X022020Y027852D02*
X022020Y027752D01*
X022020Y027802D02*
X021870Y027802D01*
X021920Y027752D01*
X021895Y027705D02*
X021870Y027680D01*
X021870Y027630D01*
X021895Y027605D01*
X021995Y027605D01*
X022020Y027630D01*
X022020Y027680D01*
X021995Y027705D01*
X021995Y027900D02*
X022020Y027925D01*
X022020Y027975D01*
X021995Y028000D01*
X021970Y028000D01*
X021945Y027975D01*
X021945Y027900D01*
X021995Y027900D01*
X021945Y027900D02*
X021895Y027950D01*
X021870Y028000D01*
X021020Y027975D02*
X020870Y027975D01*
X020945Y027900D01*
X020945Y028000D01*
X021020Y027852D02*
X021020Y027752D01*
X021020Y027802D02*
X020870Y027802D01*
X020920Y027752D01*
X020895Y027705D02*
X020870Y027680D01*
X020870Y027630D01*
X020895Y027605D01*
X020995Y027605D01*
X021020Y027630D01*
X021020Y027680D01*
X020995Y027705D01*
X020020Y027680D02*
X020020Y027630D01*
X019995Y027605D01*
X019895Y027605D01*
X019870Y027630D01*
X019870Y027680D01*
X019895Y027705D01*
X019920Y027752D02*
X019870Y027802D01*
X020020Y027802D01*
X020020Y027752D02*
X020020Y027852D01*
X020020Y027900D02*
X019920Y028000D01*
X019895Y028000D01*
X019870Y027975D01*
X019870Y027925D01*
X019895Y027900D01*
X020020Y027900D02*
X020020Y028000D01*
X019995Y027705D02*
X020020Y027680D01*
X016755Y024258D02*
X016655Y024258D01*
X016755Y024158D01*
X016780Y024183D01*
X016780Y024233D01*
X016755Y024258D01*
X016655Y024258D02*
X016630Y024233D01*
X016630Y024183D01*
X016655Y024158D01*
X016755Y024158D01*
X016780Y024110D02*
X016780Y024010D01*
X016780Y024060D02*
X016630Y024060D01*
X016680Y024010D01*
X016655Y023963D02*
X016630Y023938D01*
X016630Y023888D01*
X016655Y023863D01*
X016755Y023863D01*
X016780Y023888D01*
X016780Y023938D01*
X016755Y023963D01*
X018370Y023975D02*
X018395Y024000D01*
X018420Y024000D01*
X018445Y023975D01*
X018470Y024000D01*
X018495Y024000D01*
X018520Y023975D01*
X018520Y023925D01*
X018495Y023900D01*
X018520Y023852D02*
X018520Y023752D01*
X018520Y023802D02*
X018370Y023802D01*
X018420Y023752D01*
X018395Y023705D02*
X018370Y023680D01*
X018370Y023630D01*
X018395Y023605D01*
X018495Y023605D01*
X018520Y023630D01*
X018520Y023680D01*
X018495Y023705D01*
X018395Y023900D02*
X018370Y023925D01*
X018370Y023975D01*
X018445Y023975D02*
X018445Y023950D01*
X023130Y021258D02*
X023130Y021158D01*
X023205Y021158D01*
X023180Y021208D01*
X023180Y021233D01*
X023205Y021258D01*
X023255Y021258D01*
X023280Y021233D01*
X023280Y021183D01*
X023255Y021158D01*
X023280Y021110D02*
X023280Y021010D01*
X023280Y021060D02*
X023130Y021060D01*
X023180Y021010D01*
X023155Y020963D02*
X023130Y020938D01*
X023130Y020888D01*
X023155Y020863D01*
X023255Y020863D01*
X023280Y020888D01*
X023280Y020938D01*
X023255Y020963D01*
X024385Y020120D02*
X024385Y020020D01*
X024410Y019995D01*
X024460Y019995D01*
X024485Y020020D01*
X024533Y020020D02*
X024533Y020045D01*
X024558Y020070D01*
X024608Y020070D01*
X024633Y020045D01*
X024633Y020020D01*
X024608Y019995D01*
X024558Y019995D01*
X024533Y020020D01*
X024558Y020070D02*
X024533Y020095D01*
X024533Y020120D01*
X024558Y020145D01*
X024608Y020145D01*
X024633Y020120D01*
X024633Y020095D01*
X024608Y020070D01*
X024485Y020120D02*
X024460Y020145D01*
X024410Y020145D01*
X024385Y020120D01*
X027870Y020000D02*
X027895Y019950D01*
X027945Y019900D01*
X027945Y019975D01*
X027970Y020000D01*
X027995Y020000D01*
X028020Y019975D01*
X028020Y019925D01*
X027995Y019900D01*
X027945Y019900D01*
X028020Y019852D02*
X028020Y019752D01*
X028020Y019705D02*
X027970Y019655D01*
X027970Y019680D02*
X027970Y019605D01*
X028020Y019605D02*
X027870Y019605D01*
X027870Y019680D01*
X027895Y019705D01*
X027945Y019705D01*
X027970Y019680D01*
X027920Y019752D02*
X027870Y019802D01*
X028020Y019802D01*
X020633Y020020D02*
X020633Y020120D01*
X020608Y020145D01*
X020558Y020145D01*
X020533Y020120D01*
X020533Y020095D01*
X020558Y020070D01*
X020633Y020070D01*
X020633Y020020D02*
X020608Y019995D01*
X020558Y019995D01*
X020533Y020020D01*
X020485Y019995D02*
X020385Y019995D01*
X020435Y019995D02*
X020435Y020145D01*
X020385Y020095D01*
X020338Y020120D02*
X020313Y020145D01*
X020263Y020145D01*
X020238Y020120D01*
X020238Y020020D01*
X020263Y019995D01*
X020313Y019995D01*
X020338Y020020D01*
X024005Y013905D02*
X023980Y013880D01*
X023980Y013780D01*
X024005Y013755D01*
X024055Y013755D01*
X024080Y013780D01*
X024127Y013755D02*
X024227Y013755D01*
X024177Y013755D02*
X024177Y013905D01*
X024127Y013855D01*
X024080Y013880D02*
X024055Y013905D01*
X024005Y013905D01*
X027630Y011233D02*
X027655Y011258D01*
X027680Y011258D01*
X027705Y011233D01*
X027730Y011258D01*
X027755Y011258D01*
X027780Y011233D01*
X027780Y011183D01*
X027755Y011158D01*
X027755Y011110D02*
X027780Y011085D01*
X027780Y011035D01*
X027755Y011010D01*
X027655Y011010D01*
X027630Y011035D01*
X027630Y011085D01*
X027655Y011110D01*
X027655Y011158D02*
X027630Y011183D01*
X027630Y011233D01*
X027705Y011233D02*
X027705Y011208D01*
X024608Y005645D02*
X024533Y005570D01*
X024633Y005570D01*
X024608Y005495D02*
X024608Y005645D01*
X024485Y005620D02*
X024460Y005645D01*
X024410Y005645D01*
X024385Y005620D01*
X024385Y005520D01*
X024410Y005495D01*
X024460Y005495D01*
X024485Y005520D01*
X020780Y003758D02*
X020780Y003658D01*
X020780Y003708D02*
X020630Y003708D01*
X020680Y003658D01*
X020630Y003610D02*
X020630Y003510D01*
X020780Y003510D01*
X020705Y003510D02*
X020705Y003560D01*
X024591Y000670D02*
X024591Y000520D01*
X024691Y000520D01*
X024738Y000520D02*
X024838Y000520D01*
X024885Y000520D02*
X024960Y000520D01*
X024985Y000545D01*
X024985Y000645D01*
X024960Y000670D01*
X024885Y000670D01*
X024885Y000520D01*
X024788Y000595D02*
X024738Y000595D01*
X024738Y000670D02*
X024738Y000520D01*
X024738Y000670D02*
X024838Y000670D01*
X025033Y000595D02*
X025133Y000595D01*
X025108Y000520D02*
X025108Y000670D01*
X025033Y000595D01*
X025033Y001495D02*
X025033Y001520D01*
X025133Y001620D01*
X025133Y001645D01*
X025033Y001645D01*
X024935Y001645D02*
X024935Y001495D01*
X024885Y001495D02*
X024985Y001495D01*
X024885Y001595D02*
X024935Y001645D01*
X024838Y001620D02*
X024813Y001645D01*
X024738Y001645D01*
X024738Y001495D01*
X024738Y001545D02*
X024813Y001545D01*
X024838Y001570D01*
X024838Y001620D01*
X024788Y001545D02*
X024838Y001495D01*
X019495Y008605D02*
X019520Y008630D01*
X019520Y008680D01*
X019495Y008705D01*
X019520Y008752D02*
X019420Y008852D01*
X019395Y008852D01*
X019370Y008827D01*
X019370Y008777D01*
X019395Y008752D01*
X019395Y008705D02*
X019370Y008680D01*
X019370Y008630D01*
X019395Y008605D01*
X019495Y008605D01*
X019520Y008752D02*
X019520Y008852D01*
X015227Y011780D02*
X015202Y011755D01*
X015152Y011755D01*
X015127Y011780D01*
X015080Y011780D02*
X015055Y011755D01*
X015005Y011755D01*
X014980Y011780D01*
X014980Y011880D01*
X015005Y011905D01*
X015055Y011905D01*
X015080Y011880D01*
X015127Y011905D02*
X015127Y011830D01*
X015177Y011855D01*
X015202Y011855D01*
X015227Y011830D01*
X015227Y011780D01*
X015227Y011905D02*
X015127Y011905D01*
X011633Y011120D02*
X011633Y011020D01*
X011608Y010995D01*
X011558Y010995D01*
X011533Y011020D01*
X011485Y010995D02*
X011435Y011045D01*
X011460Y011045D02*
X011385Y011045D01*
X011385Y010995D02*
X011385Y011145D01*
X011460Y011145D01*
X011485Y011120D01*
X011485Y011070D01*
X011460Y011045D01*
X011533Y011095D02*
X011558Y011070D01*
X011633Y011070D01*
X011633Y011120D02*
X011608Y011145D01*
X011558Y011145D01*
X011533Y011120D01*
X011533Y011095D01*
X011558Y010145D02*
X011608Y010145D01*
X011633Y010120D01*
X011633Y010095D01*
X011608Y010070D01*
X011558Y010070D01*
X011533Y010095D01*
X011533Y010120D01*
X011558Y010145D01*
X011558Y010070D02*
X011533Y010045D01*
X011533Y010020D01*
X011558Y009995D01*
X011608Y009995D01*
X011633Y010020D01*
X011633Y010045D01*
X011608Y010070D01*
X011485Y010070D02*
X011460Y010045D01*
X011385Y010045D01*
X011385Y009995D02*
X011385Y010145D01*
X011460Y010145D01*
X011485Y010120D01*
X011485Y010070D01*
X011435Y010045D02*
X011485Y009995D01*
X011435Y009145D02*
X011435Y008995D01*
X011385Y008995D02*
X011485Y008995D01*
X011533Y008995D02*
X011633Y008995D01*
X011583Y008995D02*
X011583Y009145D01*
X011533Y009095D01*
X011435Y009145D02*
X011385Y009095D01*
X011338Y009070D02*
X011313Y009045D01*
X011238Y009045D01*
X011238Y008995D02*
X011238Y009145D01*
X011313Y009145D01*
X011338Y009120D01*
X011338Y009070D01*
X011288Y009045D02*
X011338Y008995D01*
X011385Y007145D02*
X011460Y007145D01*
X011485Y007120D01*
X011485Y007070D01*
X011460Y007045D01*
X011385Y007045D01*
X011385Y006995D02*
X011385Y007145D01*
X011435Y007045D02*
X011485Y006995D01*
X011533Y007020D02*
X011558Y006995D01*
X011608Y006995D01*
X011633Y007020D01*
X011633Y007045D01*
X011608Y007070D01*
X011583Y007070D01*
X011608Y007070D02*
X011633Y007095D01*
X011633Y007120D01*
X011608Y007145D01*
X011558Y007145D01*
X011533Y007120D01*
X011108Y004145D02*
X011133Y004120D01*
X011033Y004020D01*
X011058Y003995D01*
X011108Y003995D01*
X011133Y004020D01*
X011133Y004120D01*
X011108Y004145D02*
X011058Y004145D01*
X011033Y004120D01*
X011033Y004020D01*
X010985Y003995D02*
X010885Y003995D01*
X010838Y003995D02*
X010788Y004045D01*
X010813Y004045D02*
X010738Y004045D01*
X010738Y003995D02*
X010738Y004145D01*
X010813Y004145D01*
X010838Y004120D01*
X010838Y004070D01*
X010813Y004045D01*
X010885Y004095D02*
X010935Y004145D01*
X010935Y003995D01*
X010960Y002645D02*
X010985Y002620D01*
X010985Y002570D01*
X010960Y002545D01*
X010885Y002545D01*
X010885Y002495D02*
X010885Y002645D01*
X010960Y002645D01*
X010935Y002545D02*
X010985Y002495D01*
X011033Y002570D02*
X011133Y002570D01*
X011108Y002495D02*
X011108Y002645D01*
X011033Y002570D01*
X010520Y018105D02*
X010370Y018105D01*
X010370Y018180D01*
X010395Y018205D01*
X010445Y018205D01*
X010470Y018180D01*
X010470Y018105D01*
X010470Y018155D02*
X010520Y018205D01*
X010520Y018252D02*
X010520Y018352D01*
X010520Y018302D02*
X010370Y018302D01*
X010420Y018252D01*
X010420Y018400D02*
X010395Y018400D01*
X010370Y018425D01*
X010370Y018475D01*
X010395Y018500D01*
X010420Y018500D01*
X010445Y018475D01*
X010445Y018425D01*
X010420Y018400D01*
X010445Y018425D02*
X010470Y018400D01*
X010495Y018400D01*
X010520Y018425D01*
X010520Y018475D01*
X010495Y018500D01*
X010470Y018500D01*
X010445Y018475D01*
X010280Y018510D02*
X010280Y018610D01*
X010280Y018560D02*
X010130Y018560D01*
X010180Y018510D01*
X010155Y018463D02*
X010130Y018438D01*
X010130Y018388D01*
X010155Y018363D01*
X010255Y018363D01*
X010280Y018388D01*
X010280Y018438D01*
X010255Y018463D01*
X010255Y018658D02*
X010230Y018658D01*
X010205Y018683D01*
X010205Y018733D01*
X010230Y018758D01*
X010255Y018758D01*
X010280Y018733D01*
X010280Y018683D01*
X010255Y018658D01*
X010205Y018683D02*
X010180Y018658D01*
X010155Y018658D01*
X010130Y018683D01*
X010130Y018733D01*
X010155Y018758D01*
X010180Y018758D01*
X010205Y018733D01*
X009495Y020105D02*
X009520Y020130D01*
X009520Y020180D01*
X009495Y020205D01*
X009520Y020252D02*
X009520Y020352D01*
X009520Y020400D02*
X009495Y020400D01*
X009395Y020500D01*
X009370Y020500D01*
X009370Y020400D01*
X009370Y020302D02*
X009520Y020302D01*
X009420Y020252D02*
X009370Y020302D01*
X009395Y020205D02*
X009370Y020180D01*
X009370Y020130D01*
X009395Y020105D01*
X009495Y020105D01*
X007608Y022495D02*
X007633Y022520D01*
X007633Y022620D01*
X007608Y022645D01*
X007558Y022645D01*
X007533Y022620D01*
X007533Y022595D01*
X007558Y022570D01*
X007633Y022570D01*
X007608Y022495D02*
X007558Y022495D01*
X007533Y022520D01*
X007485Y022495D02*
X007385Y022495D01*
X007338Y022495D02*
X007288Y022545D01*
X007313Y022545D02*
X007238Y022545D01*
X007238Y022495D02*
X007238Y022645D01*
X007313Y022645D01*
X007338Y022620D01*
X007338Y022570D01*
X007313Y022545D01*
X007385Y022595D02*
X007435Y022645D01*
X007435Y022495D01*
X008763Y027495D02*
X008813Y027495D01*
X008838Y027520D01*
X008885Y027495D02*
X008985Y027595D01*
X008985Y027620D01*
X008960Y027645D01*
X008910Y027645D01*
X008885Y027620D01*
X008838Y027620D02*
X008813Y027645D01*
X008763Y027645D01*
X008738Y027620D01*
X008738Y027520D01*
X008763Y027495D01*
X008885Y027495D02*
X008985Y027495D01*
X009033Y027495D02*
X009133Y027595D01*
X009133Y027620D01*
X009108Y027645D01*
X009058Y027645D01*
X009033Y027620D01*
X009033Y027495D02*
X009133Y027495D01*
X008875Y029255D02*
X008775Y029255D01*
X008727Y029255D02*
X008627Y029255D01*
X008727Y029355D01*
X008727Y029380D01*
X008702Y029405D01*
X008652Y029405D01*
X008627Y029380D01*
X008580Y029380D02*
X008580Y029330D01*
X008555Y029305D01*
X008480Y029305D01*
X008480Y029255D02*
X008480Y029405D01*
X008555Y029405D01*
X008580Y029380D01*
X008530Y029305D02*
X008580Y029255D01*
X008775Y029355D02*
X008825Y029405D01*
X008825Y029255D01*
X011330Y029105D02*
X011330Y028980D01*
X011355Y028955D01*
X011405Y028955D01*
X011430Y028980D01*
X011430Y029105D01*
X011477Y029080D02*
X011502Y029105D01*
X011552Y029105D01*
X011577Y029080D01*
X011625Y029055D02*
X011675Y029105D01*
X011675Y028955D01*
X011625Y028955D02*
X011725Y028955D01*
X011772Y028980D02*
X011797Y028955D01*
X011847Y028955D01*
X011872Y028980D01*
X011872Y029005D01*
X011847Y029030D01*
X011772Y029030D01*
X011772Y028980D01*
X011772Y029030D02*
X011822Y029080D01*
X011872Y029105D01*
X011577Y029005D02*
X011552Y029030D01*
X011502Y029030D01*
X011477Y029055D01*
X011477Y029080D01*
X011527Y029130D02*
X011527Y028930D01*
X011502Y028955D02*
X011552Y028955D01*
X011577Y028980D01*
X011577Y029005D01*
X011502Y028955D02*
X011477Y028980D01*
X013480Y029280D02*
X013505Y029255D01*
X013555Y029255D01*
X013580Y029280D01*
X013627Y029255D02*
X013727Y029355D01*
X013727Y029380D01*
X013702Y029405D01*
X013652Y029405D01*
X013627Y029380D01*
X013580Y029380D02*
X013555Y029405D01*
X013505Y029405D01*
X013480Y029380D01*
X013480Y029280D01*
X013627Y029255D02*
X013727Y029255D01*
X013775Y029255D02*
X013875Y029255D01*
X013825Y029255D02*
X013825Y029405D01*
X013775Y029355D01*
X012133Y031020D02*
X012108Y030995D01*
X012058Y030995D01*
X012033Y031020D01*
X012133Y031120D01*
X012133Y031020D01*
X012133Y031120D02*
X012108Y031145D01*
X012058Y031145D01*
X012033Y031120D01*
X012033Y031020D01*
X011985Y030995D02*
X011885Y030995D01*
X011985Y031095D01*
X011985Y031120D01*
X011960Y031145D01*
X011910Y031145D01*
X011885Y031120D01*
X011838Y031120D02*
X011813Y031145D01*
X011763Y031145D01*
X011738Y031120D01*
X011738Y031020D01*
X011763Y030995D01*
X011813Y030995D01*
X011838Y031020D01*
X013738Y027645D02*
X013813Y027645D01*
X013838Y027620D01*
X013838Y027570D01*
X013813Y027545D01*
X013738Y027545D01*
X013738Y027495D02*
X013738Y027645D01*
X013788Y027545D02*
X013838Y027495D01*
X013885Y027495D02*
X013985Y027595D01*
X013985Y027620D01*
X013960Y027645D01*
X013910Y027645D01*
X013885Y027620D01*
X013885Y027495D02*
X013985Y027495D01*
X014033Y027520D02*
X014058Y027495D01*
X014108Y027495D01*
X014133Y027520D01*
X014133Y027545D01*
X014108Y027570D01*
X014083Y027570D01*
X014108Y027570D02*
X014133Y027595D01*
X014133Y027620D01*
X014108Y027645D01*
X014058Y027645D01*
X014033Y027620D01*
D17*
X014835Y009986D02*
X014872Y009912D01*
X014945Y009839D01*
X014945Y009949D01*
X014982Y009986D01*
X015018Y009986D01*
X015055Y009949D01*
X015055Y009876D01*
X015018Y009839D01*
X014945Y009839D01*
X014982Y009765D02*
X014945Y009728D01*
X014945Y009655D01*
X014908Y009618D01*
X014872Y009618D01*
X014835Y009655D01*
X014835Y009728D01*
X014872Y009765D01*
X014798Y009691D02*
X015092Y009691D01*
X015055Y009655D02*
X015055Y009728D01*
X015018Y009765D01*
X014982Y009765D01*
X015055Y009655D02*
X015018Y009618D01*
X015018Y009544D02*
X014835Y009544D01*
X014835Y009397D02*
X015018Y009397D01*
X015055Y009434D01*
X015055Y009507D01*
X015018Y009544D01*
D18*
X011325Y009450D03*
X011325Y010450D03*
X011325Y011450D03*
X011325Y007450D03*
X010825Y004450D03*
X010825Y002950D03*
X024825Y001950D03*
X036325Y002950D03*
X036325Y003950D03*
X036325Y004950D03*
X038325Y005950D03*
X032825Y010950D03*
X032825Y011950D03*
X033325Y017950D03*
X033325Y018950D03*
X033325Y019950D03*
X031325Y025450D03*
X013825Y027950D03*
X008825Y028950D03*
X007325Y022950D03*
D19*
X010825Y018450D03*
X028325Y019950D03*
D20*
X008042Y019950D02*
X008044Y019983D01*
X008050Y020016D01*
X008060Y020049D01*
X008073Y020079D01*
X008090Y020108D01*
X008111Y020135D01*
X008134Y020159D01*
X008160Y020180D01*
X008188Y020198D01*
X008219Y020212D01*
X008250Y020223D01*
X008283Y020230D01*
X008317Y020233D01*
X008350Y020232D01*
X008383Y020227D01*
X008416Y020218D01*
X008447Y020205D01*
X008476Y020189D01*
X008503Y020170D01*
X008528Y020147D01*
X008550Y020122D01*
X008569Y020094D01*
X008584Y020064D01*
X008596Y020033D01*
X008604Y020000D01*
X008608Y019967D01*
X008608Y019933D01*
X008604Y019900D01*
X008596Y019867D01*
X008584Y019836D01*
X008569Y019806D01*
X008550Y019778D01*
X008528Y019753D01*
X008503Y019730D01*
X008476Y019711D01*
X008447Y019695D01*
X008416Y019682D01*
X008383Y019673D01*
X008350Y019668D01*
X008317Y019667D01*
X008283Y019670D01*
X008250Y019677D01*
X008219Y019688D01*
X008188Y019702D01*
X008160Y019720D01*
X008134Y019741D01*
X008111Y019765D01*
X008090Y019792D01*
X008073Y019821D01*
X008060Y019851D01*
X008050Y019884D01*
X008044Y019917D01*
X008042Y019950D01*
D21*
X005211Y029366D02*
X005211Y029673D01*
X005058Y029519D02*
X005365Y029519D01*
M02*
