G75*
%MOIN*%
%OFA0B0*%
%FSLAX24Y24*%
%IPPOS*%
%LPD*%
%AMOC8*
5,1,8,0,0,1.08239X$1,22.5*
%
%ADD10C,0.0680*%
%ADD11OC8,0.0680*%
%ADD12R,0.0875X0.0875*%
%ADD13R,0.0674X0.0674*%
%ADD14R,0.1307X0.1307*%
%ADD15C,0.0680*%
%ADD16C,0.1261*%
%ADD17R,0.0789X0.0789*%
%ADD18R,0.0595X0.0595*%
%ADD19R,0.0913X0.0913*%
%ADD20R,0.0907X0.0907*%
%ADD21OC8,0.0760*%
%ADD22OC8,0.0930*%
%ADD23C,0.0480*%
D10*
X028325Y001450D03*
X033494Y021737D03*
X033494Y022525D03*
X033494Y023312D03*
X033494Y024100D03*
X033494Y024887D03*
X033494Y025674D03*
X033494Y026462D03*
X033494Y027249D03*
X033494Y028037D03*
X033494Y028824D03*
X042156Y028824D03*
X042156Y028037D03*
X042156Y027249D03*
X042156Y026462D03*
X042156Y025674D03*
X042156Y024887D03*
X042156Y024100D03*
X042156Y023312D03*
X042156Y022525D03*
X042156Y021737D03*
D11*
X030325Y002450D03*
X029325Y002450D03*
X028325Y002450D03*
X029325Y001450D03*
X030325Y001450D03*
D12*
X004325Y001950D03*
X004325Y003920D03*
X004325Y007450D03*
X004325Y009420D03*
X009245Y009420D03*
X009245Y007450D03*
X009245Y003920D03*
X009245Y001950D03*
X038325Y001950D03*
X038325Y003920D03*
X038325Y007450D03*
X038325Y009420D03*
X043245Y009420D03*
X043245Y007450D03*
X043245Y003920D03*
X043245Y001950D03*
D13*
X041309Y011497D03*
X040325Y011497D03*
X039341Y011497D03*
X008309Y011497D03*
X007325Y011497D03*
X006341Y011497D03*
D14*
X004727Y014450D03*
X009923Y014450D03*
X037727Y014450D03*
X042923Y014450D03*
D15*
X029825Y021650D02*
X029825Y022250D01*
X028825Y022250D02*
X028825Y021650D01*
X005625Y022950D02*
X005025Y022950D01*
X005025Y023950D02*
X005625Y023950D01*
X032325Y001750D02*
X032325Y001150D01*
X033325Y001150D02*
X033325Y001750D01*
D16*
X022325Y003139D03*
X022325Y014950D03*
D17*
X035317Y013769D03*
X035317Y016525D03*
D18*
X021612Y001450D03*
X020825Y001450D03*
X020038Y001450D03*
X006612Y029950D03*
X006612Y030950D03*
D19*
X022734Y001450D03*
D20*
X018916Y001450D03*
D21*
X008325Y017950D03*
X007325Y017950D03*
X006325Y017950D03*
X005325Y017950D03*
X005325Y020950D03*
X006325Y020950D03*
X007325Y020950D03*
X008325Y020950D03*
D22*
X009325Y025450D03*
X015325Y030450D03*
X013325Y030950D03*
X009325Y030950D03*
X021825Y017950D03*
X017825Y015950D03*
X019825Y014450D03*
X019325Y011450D03*
X015825Y013950D03*
X013825Y016450D03*
X012325Y013450D03*
X019325Y007450D03*
X019325Y005450D03*
X016325Y004450D03*
X017825Y002950D03*
X016325Y006450D03*
X022825Y004450D03*
X026325Y003450D03*
X027325Y003950D03*
X029325Y003950D03*
X031825Y003950D03*
X031825Y006950D03*
X028325Y008450D03*
X030325Y010450D03*
X030325Y014450D03*
D23*
X029565Y013230D03*
X031095Y011700D03*
X033885Y011970D03*
X034335Y010980D03*
X030015Y005580D03*
X030735Y004860D03*
X031095Y003240D03*
X031545Y002880D03*
X031185Y002070D03*
X033705Y002520D03*
X035505Y003240D03*
X037395Y003870D03*
X037395Y004950D03*
X033345Y005130D03*
X027855Y002880D03*
X026775Y001350D03*
X027315Y001260D03*
X024165Y001350D03*
X023985Y001890D03*
X020925Y003060D03*
X022095Y004590D03*
X023445Y005850D03*
X022275Y006390D03*
X022905Y007110D03*
X021555Y007650D03*
X022545Y008640D03*
X023805Y009090D03*
X024075Y008280D03*
X025515Y008280D03*
X025515Y009000D03*
X026685Y008370D03*
X026325Y007470D03*
X022455Y009900D03*
X023445Y010350D03*
X024165Y010440D03*
X023805Y011250D03*
X024525Y011430D03*
X025065Y011250D03*
X025425Y011610D03*
X026055Y012510D03*
X026685Y010260D03*
X022005Y013140D03*
X020925Y014220D03*
X018945Y014850D03*
X020925Y015660D03*
X018855Y016380D03*
X018315Y016470D03*
X017415Y017010D03*
X015705Y017010D03*
X015795Y019170D03*
X015525Y020970D03*
X016965Y022950D03*
X019755Y022680D03*
X020655Y022770D03*
X020655Y022230D03*
X021825Y021870D03*
X022815Y021870D03*
X023535Y021960D03*
X023805Y022770D03*
X024345Y022230D03*
X022545Y022770D03*
X022365Y025110D03*
X023085Y025110D03*
X024075Y025110D03*
X022635Y026190D03*
X018225Y026190D03*
X013455Y028440D03*
X011565Y028710D03*
X020115Y018450D03*
X022725Y018540D03*
X024705Y018180D03*
X028215Y019080D03*
X027855Y020610D03*
X027765Y021150D03*
X027045Y022410D03*
X030375Y022590D03*
X027045Y025200D03*
X030735Y029520D03*
X031995Y019440D03*
X031545Y018450D03*
X030555Y016740D03*
X028305Y016920D03*
X019395Y012240D03*
X018765Y012330D03*
X017955Y012600D03*
X017595Y012960D03*
X017235Y012420D03*
X016875Y012780D03*
X016245Y011790D03*
X015885Y010710D03*
X015885Y009990D03*
X015345Y010080D03*
X014805Y010350D03*
X014265Y011070D03*
X015075Y009270D03*
X015705Y008910D03*
X013725Y008010D03*
X012555Y008910D03*
X011835Y008010D03*
X010485Y010530D03*
X005175Y015480D03*
X017235Y010440D03*
X017955Y010890D03*
X017595Y010080D03*
X018765Y010080D03*
X018405Y008550D03*
X018405Y005220D03*
X017595Y001710D03*
X008505Y002340D03*
M02*
