%
M48
M72
T01C0.0240
T02C0.0315
T03C0.0320
T04C0.0394
T05C0.0400
T06C0.0472
T07C0.0520
T08C0.0530
T09C0.0551
T10C0.0555
T11C0.0827
T12C0.1181
%
T01
X8505Y2340
X11835Y8010
X12555Y8910
X13725Y8010
X15075Y9270
X15705Y8910
X15885Y9990
X15345Y10080
X14805Y10350
X14265Y11070
X15885Y10710
X17235Y10440
X17955Y10890
X17595Y10080
X18765Y10080
X18405Y8550
X21555Y7650
X22545Y8640
X23805Y9090
X24075Y8280
X25515Y8280
X25515Y9000
X26685Y8370
X26325Y7470
X23445Y5850
X22275Y6390
X22905Y7110
X22095Y4590
X20925Y3060
X23985Y1890
X24165Y1350
X26775Y1350
X27315Y1260
X27855Y2880
X30735Y4860
X30015Y5580
X33345Y5130
X35505Y3240
X33705Y2520
X31545Y2880
X31095Y3240
X31185Y2070
X37395Y3870
X37395Y4950
X34335Y10980
X33885Y11970
X31095Y11700
X29565Y13230
X26055Y12510
X25425Y11610
X25065Y11250
X24525Y11430
X23805Y11250
X24165Y10440
X23445Y10350
X22455Y9900
X19395Y12240
X18765Y12330
X17955Y12600
X17595Y12960
X17235Y12420
X16875Y12780
X16245Y11790
X18945Y14850
X20925Y14220
X22005Y13140
X20925Y15660
X18855Y16380
X18315Y16470
X17415Y17010
X15705Y17010
X15795Y19170
X15525Y20970
X16965Y22950
X19755Y22680
X20655Y22770
X20655Y22230
X21825Y21870
X22815Y21870
X23535Y21960
X23805Y22770
X24345Y22230
X22545Y22770
X22365Y25110
X23085Y25110
X24075Y25110
X22635Y26190
X18225Y26190
X13455Y28440
X11565Y28710
X20115Y18450
X22725Y18540
X24705Y18180
X28215Y19080
X27855Y20610
X27765Y21150
X27045Y22410
X30375Y22590
X27045Y25200
X30735Y29520
X31995Y19440
X31545Y18450
X30555Y16740
X28305Y16920
X26685Y10260
X18405Y5220
X17595Y1710
X10485Y10530
X5175Y15480
T02
X20038Y1450
X20825Y1450
X21612Y1450
X33494Y21737
X33494Y22525
X33494Y23312
X33494Y24100
X33494Y24887
X33494Y25674
X33494Y26462
X33494Y27249
X33494Y28037
X33494Y28824
X42156Y28824
X42156Y28037
X42156Y27249
X42156Y26462
X42156Y25674
X42156Y24887
X42156Y24100
X42156Y23312
X42156Y22525
X42156Y21737
X6612Y29950
X6612Y30950
T03
X6325Y20950
X5325Y20950
X7325Y20950
X8325Y20950
X8325Y17950
X7325Y17950
X6325Y17950
X5325Y17950
T04
X6341Y11497
X7325Y11497
X8309Y11497
X39341Y11497
X40325Y11497
X41309Y11497
T05
X30325Y2450
X29325Y2450
X28325Y2450
X28325Y1450
X29325Y1450
X30325Y1450
X32325Y1450
X33325Y1450
X29825Y21950
X28825Y21950
X5325Y22950
X5325Y23950
T06
X35317Y16525
X35317Y13769
T07
X30325Y14450
X30325Y10450
X28325Y8450
X31825Y6950
X31825Y3950
X29325Y3950
X27325Y3950
X26325Y3450
X22825Y4450
X19325Y5450
X19325Y7450
X16325Y6450
X16325Y4450
X17825Y2950
X19325Y11450
X15825Y13950
X17825Y15950
X19825Y14450
X21825Y17950
X13825Y16450
X12325Y13450
X9325Y25450
X15325Y30450
X13325Y30950
X9325Y30950
T08
X4325Y1950
X4325Y3920
X4325Y7450
X4325Y9420
X9245Y9420
X9245Y7450
X9245Y3920
X9245Y1950
X38325Y1950
X38325Y3920
X38325Y7450
X38325Y9420
X43245Y9420
X43245Y7450
X43245Y3920
X43245Y1950
T09
X18916Y1450
T10
X22734Y1450
T11
X9923Y14450
X4727Y14450
X37727Y14450
X42923Y14450
T12
X22325Y14950
X22325Y3139
M30
