G75*
%MOIN*%
%OFA0B0*%
%FSLAX24Y24*%
%IPPOS*%
%LPD*%
%AMOC8*
5,1,8,0,0,1.08239X$1,22.5*
%
%ADD10C,0.0600*%
%ADD11OC8,0.0600*%
%ADD12R,0.0795X0.0795*%
%ADD13R,0.0594X0.0594*%
%ADD14R,0.1227X0.1227*%
%ADD15C,0.0600*%
%ADD16R,0.0709X0.0709*%
%ADD17R,0.0515X0.0515*%
%ADD18R,0.0833X0.0833*%
%ADD19R,0.0827X0.0827*%
%ADD20OC8,0.0680*%
%ADD21OC8,0.0850*%
%ADD22C,0.0100*%
%ADD23C,0.0400*%
D10*
X028325Y001450D03*
X033494Y021737D03*
X033494Y022525D03*
X033494Y023312D03*
X033494Y024100D03*
X033494Y024887D03*
X033494Y025674D03*
X033494Y026462D03*
X033494Y027249D03*
X033494Y028037D03*
X033494Y028824D03*
X042156Y028824D03*
X042156Y028037D03*
X042156Y027249D03*
X042156Y026462D03*
X042156Y025674D03*
X042156Y024887D03*
X042156Y024100D03*
X042156Y023312D03*
X042156Y022525D03*
X042156Y021737D03*
D11*
X030325Y002450D03*
X029325Y002450D03*
X028325Y002450D03*
X029325Y001450D03*
X030325Y001450D03*
D12*
X004325Y001950D03*
X004325Y003920D03*
X004325Y007450D03*
X004325Y009420D03*
X009245Y009420D03*
X009245Y007450D03*
X009245Y003920D03*
X009245Y001950D03*
X038325Y001950D03*
X038325Y003920D03*
X038325Y007450D03*
X038325Y009420D03*
X043245Y009420D03*
X043245Y007450D03*
X043245Y003920D03*
X043245Y001950D03*
D13*
X041309Y011497D03*
X040325Y011497D03*
X039341Y011497D03*
X008309Y011497D03*
X007325Y011497D03*
X006341Y011497D03*
D14*
X004727Y014450D03*
X009923Y014450D03*
X037727Y014450D03*
X042923Y014450D03*
D15*
X029825Y021650D02*
X029825Y022250D01*
X028825Y022250D02*
X028825Y021650D01*
X005625Y022950D02*
X005025Y022950D01*
X005025Y023950D02*
X005625Y023950D01*
X032325Y001750D02*
X032325Y001150D01*
X033325Y001150D02*
X033325Y001750D01*
D16*
X035317Y013769D03*
X035317Y016525D03*
D17*
X021612Y001450D03*
X020825Y001450D03*
X020038Y001450D03*
X006612Y029950D03*
X006612Y030950D03*
D18*
X022734Y001450D03*
D19*
X018916Y001450D03*
D20*
X008325Y017950D03*
X007325Y017950D03*
X006325Y017950D03*
X005325Y017950D03*
X005325Y020950D03*
X006325Y020950D03*
X007325Y020950D03*
X008325Y020950D03*
D21*
X009325Y025450D03*
X015325Y030450D03*
X013325Y030950D03*
X009325Y030950D03*
X021825Y017950D03*
X017825Y015950D03*
X019825Y014450D03*
X019325Y011450D03*
X015825Y013950D03*
X013825Y016450D03*
X012325Y013450D03*
X019325Y007450D03*
X019325Y005450D03*
X016325Y004450D03*
X017825Y002950D03*
X016325Y006450D03*
X022825Y004450D03*
X026325Y003450D03*
X027325Y003950D03*
X029325Y003950D03*
X031825Y003950D03*
X031825Y006950D03*
X028325Y008450D03*
X030325Y010450D03*
X030325Y014450D03*
D22*
X030285Y014400D01*
X030285Y013320D01*
X025965Y009000D01*
X025515Y009000D01*
X025155Y009180D02*
X025155Y008100D01*
X027315Y005940D01*
X030195Y005940D01*
X030375Y005760D01*
X030375Y002520D01*
X030325Y002450D01*
X030465Y001980D02*
X030825Y002340D01*
X030825Y002970D01*
X030735Y003060D01*
X030735Y004860D01*
X030015Y005580D02*
X028755Y004320D01*
X028755Y002250D01*
X028485Y001980D01*
X028125Y001980D01*
X027855Y002250D01*
X023805Y002250D01*
X023625Y002070D01*
X022185Y002070D01*
X021645Y001530D01*
X021612Y001450D01*
X020925Y003060D02*
X019665Y003060D01*
X018405Y004320D01*
X018405Y005220D01*
X016325Y006450D02*
X016245Y006480D01*
X016245Y011790D01*
X016065Y012150D02*
X014805Y010890D01*
X014805Y010350D01*
X014895Y009990D02*
X011565Y009990D01*
X010485Y011070D01*
X006705Y011070D01*
X006345Y011430D01*
X006341Y011497D01*
X007325Y011497D02*
X007335Y011520D01*
X007335Y014490D01*
X006345Y014490D01*
X006345Y017910D01*
X006325Y017950D01*
X008145Y018450D02*
X008505Y018450D01*
X012285Y014670D01*
X012285Y013500D01*
X012325Y013450D01*
X012375Y013410D01*
X012375Y012420D01*
X014085Y010710D01*
X014445Y010710D01*
X014625Y010890D01*
X014625Y011070D01*
X017235Y013680D01*
X022275Y013680D01*
X024165Y011790D01*
X024165Y010440D01*
X023445Y010350D02*
X023445Y012240D01*
X022185Y013500D01*
X017595Y013500D01*
X016875Y012780D01*
X017235Y012420D02*
X017235Y010440D01*
X017955Y010890D02*
X017955Y012600D01*
X017595Y012960D02*
X017595Y010080D01*
X018765Y010080D02*
X018765Y012330D01*
X019395Y012240D02*
X021825Y009810D01*
X021825Y008730D01*
X023265Y007290D01*
X023265Y006930D01*
X023085Y006750D01*
X022455Y006750D01*
X021555Y007650D01*
X021465Y008550D02*
X022905Y007110D01*
X022275Y006390D02*
X025695Y006390D01*
X024525Y007560D01*
X024525Y011430D01*
X023805Y011250D02*
X023805Y009090D01*
X024075Y008280D02*
X022455Y009900D01*
X022005Y009810D02*
X022005Y013140D01*
X022635Y013860D02*
X017055Y013860D01*
X014265Y011070D01*
X014895Y009990D02*
X015705Y009180D01*
X015705Y008910D01*
X016065Y008730D02*
X010035Y002700D01*
X005085Y002700D01*
X004365Y001980D01*
X004325Y001950D01*
X008505Y002340D02*
X008685Y002520D01*
X013545Y002520D01*
X018405Y007380D01*
X019305Y007380D01*
X019325Y007450D01*
X019395Y008190D02*
X017415Y008190D01*
X016605Y009000D01*
X016605Y011970D01*
X016425Y012150D01*
X016065Y012150D01*
X015885Y010710D02*
X015885Y009990D01*
X015345Y010080D02*
X015345Y009810D01*
X016065Y009090D01*
X016065Y008730D01*
X015075Y009270D02*
X011745Y009270D01*
X010485Y010530D01*
X009765Y008910D02*
X008865Y008010D01*
X004905Y008010D01*
X004365Y007470D01*
X004325Y007450D01*
X009765Y008910D02*
X012555Y008910D01*
X011835Y008010D02*
X013725Y008010D01*
X018405Y008550D02*
X021465Y008550D01*
X022545Y008640D02*
X022545Y009270D01*
X022005Y009810D01*
X019395Y008190D02*
X021735Y005850D01*
X023445Y005850D01*
X023895Y005040D02*
X022545Y005040D01*
X022095Y004590D01*
X023895Y005040D02*
X026055Y002880D01*
X027855Y002880D01*
X028305Y002520D02*
X028325Y002450D01*
X028305Y002520D02*
X028305Y003780D01*
X025695Y006390D01*
X026325Y007470D02*
X031275Y012420D01*
X031275Y017010D01*
X034335Y020070D01*
X034335Y028890D01*
X033705Y029520D01*
X030735Y029520D01*
X032985Y028980D02*
X032985Y027720D01*
X033435Y027270D01*
X033494Y027249D01*
X033975Y027540D02*
X033525Y027990D01*
X033494Y028037D01*
X033975Y027540D02*
X033975Y021600D01*
X031995Y019620D01*
X031995Y019440D01*
X031545Y018450D02*
X034155Y021060D01*
X034155Y028800D01*
X033615Y029340D01*
X033345Y029340D01*
X032985Y028980D01*
X027045Y025200D02*
X024705Y025200D01*
X024255Y024750D01*
X023445Y024750D01*
X023085Y025110D01*
X022635Y024840D02*
X022635Y024750D01*
X020655Y022770D01*
X020385Y022770D01*
X019845Y023310D01*
X005985Y023310D01*
X005355Y023940D01*
X005325Y023950D01*
X004815Y024390D02*
X004545Y024120D01*
X004545Y016110D01*
X005175Y015480D01*
X004815Y014490D02*
X004727Y014450D01*
X004815Y014490D02*
X006345Y014490D01*
X007335Y014490D02*
X009855Y014490D01*
X009923Y014450D01*
X010755Y016470D02*
X013815Y016470D01*
X013825Y016450D01*
X015705Y017010D02*
X018225Y014490D01*
X019755Y014490D01*
X019825Y014450D01*
X018945Y014850D02*
X018135Y014850D01*
X017235Y015750D01*
X017235Y016200D01*
X018135Y017100D01*
X021825Y017100D01*
X024345Y019620D01*
X024345Y022230D01*
X024165Y022590D02*
X023535Y021960D01*
X022815Y021870D02*
X021825Y021870D01*
X021285Y021870D02*
X022185Y022770D01*
X022545Y022770D01*
X023805Y022770D02*
X024705Y022770D01*
X022635Y024840D01*
X022365Y025110D01*
X022905Y025830D02*
X010575Y025830D01*
X009135Y024390D01*
X004815Y024390D01*
X005985Y023310D02*
X007245Y022050D01*
X007245Y020970D01*
X007325Y020950D01*
X006795Y020790D02*
X008775Y018810D01*
X021015Y018810D01*
X021825Y018000D01*
X021825Y017950D01*
X022725Y018540D02*
X022095Y019170D01*
X015795Y019170D01*
X017055Y017730D02*
X017775Y018450D01*
X020115Y018450D01*
X018765Y016920D02*
X028305Y016920D01*
X027855Y017910D02*
X029565Y016200D01*
X029565Y013230D01*
X030915Y013680D02*
X025515Y008280D01*
X026685Y008370D02*
X031095Y012780D01*
X031095Y018180D01*
X030375Y018900D01*
X030375Y022590D01*
X030195Y022950D02*
X030015Y022770D01*
X027945Y022770D01*
X024705Y019530D01*
X024705Y018180D01*
X022725Y016380D02*
X026685Y012420D01*
X026685Y010260D01*
X025425Y009450D02*
X025155Y009180D01*
X025425Y009450D02*
X025425Y011610D01*
X025065Y011430D02*
X022635Y013860D01*
X020925Y014220D02*
X020925Y015660D01*
X022815Y016020D02*
X017865Y016020D01*
X017825Y015950D01*
X018315Y016470D02*
X018765Y016920D01*
X018855Y016380D02*
X022725Y016380D01*
X022815Y016020D02*
X026055Y012780D01*
X026055Y012510D01*
X025065Y011430D02*
X025065Y011250D01*
X031095Y011700D02*
X031095Y003240D01*
X031545Y002880D02*
X032445Y003780D01*
X032445Y011070D01*
X033615Y012240D01*
X033615Y012960D01*
X035235Y014580D01*
X035235Y016470D01*
X035317Y016525D01*
X030915Y018090D02*
X030915Y013680D01*
X033885Y011970D02*
X040815Y011970D01*
X041265Y011520D01*
X041309Y011497D01*
X039341Y011497D02*
X039285Y011430D01*
X038835Y010980D01*
X034335Y010980D01*
X038325Y007450D02*
X038295Y007380D01*
X033705Y002790D01*
X033705Y002520D01*
X033345Y001530D02*
X033325Y001450D01*
X033345Y001530D02*
X033345Y005130D01*
X035505Y003240D02*
X037035Y003240D01*
X038325Y001950D01*
X039285Y001980D02*
X043245Y001980D01*
X043245Y001950D01*
X039285Y001980D02*
X037395Y003870D01*
X037395Y004950D02*
X038835Y004950D01*
X043245Y009360D01*
X043245Y009420D01*
X032325Y001450D02*
X032265Y001530D01*
X031545Y002250D01*
X031545Y002880D01*
X031185Y002070D02*
X031185Y001620D01*
X030555Y000990D01*
X028125Y000990D01*
X027225Y001890D01*
X023985Y001890D01*
X024165Y001350D02*
X026775Y001350D01*
X026955Y000900D02*
X027315Y001260D01*
X026955Y000900D02*
X018405Y000900D01*
X017595Y001710D01*
X028325Y001450D02*
X028395Y001530D01*
X028755Y001530D01*
X029205Y001980D01*
X030465Y001980D01*
X017055Y013860D02*
X015975Y013860D01*
X015885Y013950D01*
X015825Y013950D01*
X017415Y017010D02*
X017055Y017370D01*
X017055Y017730D01*
X015525Y020970D02*
X008325Y020970D01*
X008325Y020950D01*
X006795Y020790D02*
X006795Y021150D01*
X005355Y022590D01*
X005355Y022950D01*
X005325Y022950D01*
X005325Y020950D02*
X005355Y020880D01*
X005715Y020880D01*
X008145Y018450D01*
X006345Y020880D02*
X010755Y016470D01*
X006345Y020880D02*
X006325Y020950D01*
X009325Y025450D02*
X009405Y025470D01*
X011565Y027630D01*
X011565Y028710D01*
X013455Y028620D02*
X015255Y030420D01*
X015325Y030450D01*
X013455Y028620D02*
X013455Y028440D01*
X018225Y026190D02*
X022635Y026190D01*
X022905Y025830D02*
X023625Y025110D01*
X024075Y025110D01*
X024705Y022770D02*
X027945Y022770D01*
X027045Y022410D02*
X024705Y022410D01*
X024525Y022590D01*
X024165Y022590D01*
X021285Y021870D02*
X020025Y021870D01*
X018945Y022950D01*
X016965Y022950D01*
X019755Y022680D02*
X020205Y022680D01*
X020655Y022230D01*
X027765Y021150D02*
X027945Y020970D01*
X028035Y020970D01*
X030915Y018090D01*
X030555Y016740D02*
X028215Y019080D01*
X027855Y017910D02*
X027855Y020610D01*
X030195Y022950D02*
X032265Y022950D01*
X033435Y021780D01*
X033494Y021737D01*
D23*
X031995Y019440D03*
X031545Y018450D03*
X030555Y016740D03*
X028305Y016920D03*
X028215Y019080D03*
X027855Y020610D03*
X027765Y021150D03*
X027045Y022410D03*
X024345Y022230D03*
X023805Y022770D03*
X023535Y021960D03*
X022815Y021870D03*
X022545Y022770D03*
X021825Y021870D03*
X020655Y022230D03*
X020655Y022770D03*
X019755Y022680D03*
X016965Y022950D03*
X015525Y020970D03*
X015795Y019170D03*
X015705Y017010D03*
X017415Y017010D03*
X018315Y016470D03*
X018855Y016380D03*
X018945Y014850D03*
X020925Y014220D03*
X022005Y013140D03*
X024525Y011430D03*
X023805Y011250D03*
X024165Y010440D03*
X023445Y010350D03*
X022455Y009900D03*
X023805Y009090D03*
X024075Y008280D03*
X022545Y008640D03*
X021555Y007650D03*
X022905Y007110D03*
X022275Y006390D03*
X023445Y005850D03*
X022095Y004590D03*
X020925Y003060D03*
X023985Y001890D03*
X024165Y001350D03*
X026775Y001350D03*
X027315Y001260D03*
X027855Y002880D03*
X030735Y004860D03*
X030015Y005580D03*
X033345Y005130D03*
X035505Y003240D03*
X033705Y002520D03*
X031545Y002880D03*
X031095Y003240D03*
X031185Y002070D03*
X037395Y003870D03*
X037395Y004950D03*
X034335Y010980D03*
X033885Y011970D03*
X031095Y011700D03*
X029565Y013230D03*
X026055Y012510D03*
X025425Y011610D03*
X025065Y011250D03*
X026685Y010260D03*
X025515Y009000D03*
X025515Y008280D03*
X026685Y008370D03*
X026325Y007470D03*
X019395Y012240D03*
X018765Y012330D03*
X017955Y012600D03*
X017595Y012960D03*
X017235Y012420D03*
X016875Y012780D03*
X016245Y011790D03*
X015885Y010710D03*
X015885Y009990D03*
X015345Y010080D03*
X014805Y010350D03*
X014265Y011070D03*
X015075Y009270D03*
X015705Y008910D03*
X013725Y008010D03*
X012555Y008910D03*
X011835Y008010D03*
X010485Y010530D03*
X005175Y015480D03*
X017235Y010440D03*
X017955Y010890D03*
X017595Y010080D03*
X018765Y010080D03*
X018405Y008550D03*
X018405Y005220D03*
X017595Y001710D03*
X008505Y002340D03*
X020925Y015660D03*
X020115Y018450D03*
X022725Y018540D03*
X024705Y018180D03*
X030375Y022590D03*
X027045Y025200D03*
X024075Y025110D03*
X023085Y025110D03*
X022365Y025110D03*
X022635Y026190D03*
X018225Y026190D03*
X013455Y028440D03*
X011565Y028710D03*
X030735Y029520D03*
M02*
